<svg
  xmlns="http://www.w3.org/2000/svg"
  viewBox="0 0 53.508 53.507"
  fill="currentColor"
>
  <path d="M53.111,22.172c-0.07-0.411-0.311-0.773-0.66-1c-0.351-0.228-0.777-0.298-1.184-0.197c-0.922,0.231-1.879,0.179-2.749-0.156c-2.351-0.903-3.528-3.553-2.626-5.904c0.341-0.889,0.957-1.642,1.782-2.178c0.35-0.227,0.589-0.589,0.661-1c0.07-0.41-0.031-0.832-0.283-1.164c-1.656-2.184-3.629-4.09-5.861-5.665c-0.34-0.239-0.764-0.325-1.171-0.243C40.613,4.75,40.26,5,40.043,5.355C39.559,6.156,38.852,6.779,38,7.158c-0.592,0.263-1.215,0.396-1.854,0.396c-1.804,0-3.442-1.065-4.177-2.713c-0.391-0.878-0.491-1.843-0.293-2.79c0.086-0.407-0.001-0.831-0.24-1.172c-0.238-0.34-0.609-0.565-1.021-0.622c-2.707-0.377-5.475-0.336-8.141,0.12c-0.41,0.07-0.773,0.308-1.002,0.656c-0.229,0.348-0.302,0.775-0.202,1.18c0.224,0.913,0.167,1.854-0.167,2.722c-0.674,1.754-2.388,2.933-4.266,2.933c-0.559,0-1.109-0.104-1.637-0.307c-0.893-0.343-1.646-0.96-2.18-1.786c-0.227-0.35-0.588-0.59-0.997-0.662c-0.409-0.072-0.831,0.028-1.164,0.277c-2.192,1.649-4.108,3.618-5.694,5.852c-0.242,0.341-0.331,0.768-0.245,1.177s0.339,0.764,0.698,0.979c0.811,0.485,1.441,1.196,1.824,2.057c0.496,1.115,0.528,2.356,0.091,3.495c-0.438,1.139-1.293,2.039-2.409,2.535c-0.893,0.396-1.885,0.491-2.844,0.28c-0.408-0.091-0.836-0.007-1.18,0.23c-0.344,0.238-0.572,0.608-0.632,1.021c-0.388,2.74-0.354,5.495,0.104,8.189c0.07,0.415,0.312,0.781,0.665,1.009c0.353,0.229,0.787,0.295,1.193,0.191c0.935-0.245,1.905-0.195,2.789,0.144c1.14,0.438,2.04,1.293,2.536,2.407s0.528,2.355,0.09,3.495c-0.351,0.912-0.991,1.679-1.854,2.217c-0.355,0.223-0.604,0.584-0.68,0.997c-0.078,0.414,0.022,0.84,0.275,1.177c1.661,2.211,3.645,4.141,5.893,5.729c0.345,0.244,0.777,0.333,1.188,0.24c0.412-0.091,0.767-0.35,0.978-0.715c0.487-0.843,1.212-1.495,2.093-1.888c0.59-0.263,1.214-0.396,1.854-0.396c1.805,0,3.443,1.064,4.177,2.713c0.405,0.912,0.499,1.913,0.269,2.896c-0.096,0.41-0.016,0.843,0.223,1.19c0.239,0.348,0.613,0.579,1.031,0.637c1.221,0.17,2.461,0.257,3.689,0.257c1.516,0,3.04-0.132,4.529-0.391c0.416-0.072,0.78-0.315,1.008-0.671c0.228-0.356,0.294-0.789,0.185-1.196c-0.256-0.951-0.209-1.925,0.133-2.816c0.675-1.753,2.39-2.932,4.268-2.932c0.559,0,1.109,0.104,1.635,0.305c0.912,0.353,1.678,0.992,2.217,1.853c0.224,0.355,0.586,0.604,1,0.68c0.412,0.076,0.842-0.024,1.178-0.28c2.202-1.668,4.12-3.654,5.701-5.904c0.24-0.344,0.326-0.771,0.238-1.183c-0.09-0.408-0.348-0.764-0.709-0.976c-0.832-0.486-1.477-1.205-1.865-2.078c-1.022-2.302,0.018-5.008,2.316-6.031c0.893-0.396,1.885-0.491,2.84-0.279c0.41,0.089,0.84,0.005,1.184-0.234c0.345-0.239,0.572-0.612,0.629-1.028C53.633,27.618,53.582,24.869,53.111,22.172z M50.441,28.494c-1.055,0.001-2.08,0.219-3.049,0.649c-3.812,1.696-5.534,6.179-3.839,9.99c0.417,0.938,1.011,1.768,1.751,2.454c-0.914,1.145-1.934,2.199-3.047,3.156c-0.747-0.762-1.643-1.354-2.646-1.739c-0.871-0.335-1.783-0.505-2.712-0.505c-3.11,0-5.95,1.951-7.065,4.855c-0.373,0.966-0.535,1.983-0.49,3.01c-1.452,0.16-2.918,0.184-4.384,0.07c0.011-1.071-0.208-2.132-0.651-3.129c-1.215-2.729-3.93-4.493-6.918-4.493c-1.063,0-2.096,0.221-3.074,0.654c-0.945,0.421-1.781,1.022-2.473,1.771c-1.141-0.919-2.193-1.942-3.146-3.061c0.767-0.749,1.36-1.646,1.747-2.652c0.727-1.888,0.673-3.943-0.148-5.791c-0.822-1.848-2.314-3.264-4.201-3.988c-0.947-0.364-1.951-0.535-2.965-0.491c-0.153-1.451-0.17-2.917-0.052-4.382c0.002,0,0.005,0,0.007,0c1.059,0,2.088-0.22,3.057-0.65c1.848-0.821,3.266-2.312,3.99-4.2c0.726-1.887,0.672-3.944-0.15-5.791c-0.407-0.916-0.984-1.729-1.699-2.407c0.918-1.14,1.94-2.189,3.056-3.14c0.735,0.731,1.608,1.3,2.584,1.675c0.873,0.335,1.786,0.506,2.715,0.506c3.11,0,5.949-1.952,7.064-4.856c0.355-0.924,0.522-1.896,0.499-2.874c1.449-0.158,2.912-0.178,4.375-0.063c0.01,1.024,0.229,2.035,0.651,2.986c1.215,2.73,3.931,4.494,6.919,4.494c1.062-0.001,2.096-0.221,3.072-0.655c0.906-0.402,1.713-0.972,2.389-1.679c1.141,0.914,2.194,1.932,3.148,3.043c-0.727,0.734-1.291,1.605-1.664,2.577c-1.496,3.895,0.455,8.281,4.35,9.779c0.934,0.358,1.916,0.519,2.92,0.495C50.523,25.567,50.551,27.031,50.441,28.494z"/>
  <path d="M26.749,15.252c-1.613,0-3.185,0.334-4.669,0.995c-5.793,2.577-8.41,9.388-5.833,15.18c1.845,4.148,5.972,6.828,10.513,6.828c1.613,0,3.184-0.334,4.669-0.995c5.794-2.576,8.409-9.388,5.833-15.18C35.416,17.932,31.289,15.252,26.749,15.252z M30.209,34.521c-1.099,0.487-2.259,0.734-3.449,0.734c-3.357,0-6.408-1.979-7.771-5.047c-1.904-4.282,0.029-9.315,4.311-11.222c1.1-0.488,2.26-0.735,3.45-0.735c3.356,0,6.407,1.98,7.771,5.047C36.426,27.581,34.492,32.615,30.209,34.521z"/>
</svg>
