<?xml version="1.0" encoding="utf-8"?><!-- Uploaded to: SVG Repo, www.svgrepo.com, Generator: SVG Repo Mixer Tools -->
<svg width="800px" height="800px" viewBox="0 0 24 24" fill="none" xmlns="http://www.w3.org/2000/svg" style="invert">
<path fill-rule="evenodd" clip-rule="evenodd" d="M12 1C8.66122 1 6.82956 2.42375 5.89251 3.9855C5.44337 4.73406 5.22278 5.47456 5.11317 6.02263C5.04903 6.34333 5.00117 6.66975 5 6.99742L5 17.0012C5.00058 17.3281 5.04926 17.6578 5.11317 17.9774C5.22278 18.5254 5.44337 19.2659 5.89251 20.0145C6.82956 21.5763 8.66122 23 12 23C15.3388 23 17.1704 21.5763 18.1075 20.0145C18.5566 19.2659 18.7772 18.5254 18.8868 17.9774C18.9511 17.6562 18.9995 17.3234 19 16.9951L19 6.99436C18.9976 6.66802 18.9507 6.3421 18.8868 6.02263C18.7772 5.47456 18.5566 4.73406 18.1075 3.9855C17.1704 2.42375 15.3388 1 12 1ZM7 9V7.00488C7.00626 6.80677 7.03552 6.60892 7.07433 6.41487C7.15222 6.02544 7.30663 5.51594 7.60749 5.0145C8.0943 4.20314 9.03384 3.28858 11 3.05605V9H7ZM7 11V16.9951C7.00626 17.1932 7.03552 17.3911 7.07433 17.5851C7.15222 17.9746 7.30663 18.4841 7.60749 18.9855C8.17044 19.9237 9.33878 21 12 21C14.6612 21 15.8296 19.9237 16.3925 18.9855C16.6934 18.4841 16.8478 17.9746 16.9257 17.5851C16.9645 17.3911 16.9937 17.1932 17 16.9951V11H7ZM17 9V7.00489C16.9937 6.80686 16.9645 6.60887 16.9257 6.41487C16.8478 6.02544 16.6934 5.51594 16.3925 5.0145C15.9057 4.20314 14.9662 3.28858 13 3.05605V9H17Z" fill="#FFFFFF"/>
</svg>