<?xml version="1.0" encoding="utf-8"?>
<!-- Generator: Adobe Illustrator 22.0.1, SVG Export Plug-In . SVG Version: 6.00 Build 0)  -->
<svg version="1.1" id="圖層_1" xmlns="http://www.w3.org/2000/svg" xmlns:xlink="http://www.w3.org/1999/xlink" x="0px" y="0px"
	 viewBox="0 0 16 16" style="enable-background:new 0 0 16 16;" xml:space="preserve">
<style type="text/css">
	.st0{fill:#4E4D4D;}
</style>
<g>
	<g>
		<path class="st0" d="M5.2,0.3C5.2,0.3,5.2,0.3,5.2,0.3"/>
		<path class="st0" d="M5.2,0.3C5.2,0.3,5.2,0.3,5.2,0.3c-0.1,0.2,0,0.4,0,0.6c0.1,0.7,0.2,1.4,0.2,2.2c0,0.1,0,0.2,0,0.2
			c-0.4,0-0.3,0.3-0.3,0.5c0,0.7-0.1,1.4,0,2.1c0,0.3,0,0.5,0.1,0.8C5.4,6.8,5.2,6.9,5.1,7c0.2,0.1,0.4,0,0.5,0.1
			c0.1,0,0.2,0.1,0.3-0.1C5.8,7.1,5.7,7,5.6,7c-0.1,0-0.2,0-0.2-0.1c0-0.1,0.1-0.1,0.2-0.1c0.6,0.1,1,0.5,1.4,0.8
			C7.1,7.7,7,7.8,7.1,7.9c0.1,0.2,0,0.5,0.3,0.6c0.1,0,0.1,0,0-0.1c0,0,0,0-0.1,0c0,0,0,0,0,0.1c0,0.2,0.1,0.3,0.1,0.5
			c0,0.4,0.2,0.9-0.4,1.1C7,10,7,10.1,6.9,10.1c-0.1,0.1-0.2,0.1-0.4,0.1c0,0.1-0.1,0.1-0.2,0.1c-0.2,0-0.4-0.2-0.6-0.1
			c-0.2,0-0.4,0-0.5-0.2C5.2,9.8,5.1,9.9,5,10c0.3,0.1,0.5,0.3,0.7,0.4c-0.2,0-0.3,0.1-0.5-0.1c-0.1-0.2-0.2-0.2-0.3,0
			c-0.3,0.5-0.3,1-0.5,1.5c-0.3,1-0.2,1.9,0.2,2.9c0.1,0.3,0.3,0.5,0.5,0.8c0,0,0.1,0.1,0,0.1c0,0,0,0-0.1,0c-0.1,0,0,0,0-0.1
			c0-1.1,0.2-2.1,0.8-3c0.3-0.5,0.7-1,1.3-1.1c0.6-0.1,1,0.2,1.1,0.7c0,0.4,0,0.9-0.3,1.3c0,0-0.1,0.1,0,0.2c0.1,0.1,0.1,0,0.2-0.1
			c0.1-0.2,0.3-0.3,0.4-0.5c0.4-0.6,0.9-1,1.4-1.4c0.1-0.1,0.2-0.2,0.3-0.4c0.1-0.1,0.1-0.2,0.3-0.3c0,0,0.1-0.1,0.1-0.2
			c0,0.1,0,0.1-0.1,0.2c0,0.2-0.1,0.4-0.1,0.6c0,0,0,0.1,0,0.1c0.1,0,0.1,0,0.2-0.1c0.3-0.3,0.3-0.7,0.6-1c0.1-0.1-0.1-0.1-0.1-0.2
			c0,0,0,0,0,0c0,0,0,0,0,0c0,0,0-0.1,0.1-0.1c-0.2-0.1-0.4,0-0.5-0.1c-0.1,0.2-0.2,0.1-0.3,0.1c-0.3,0-0.6,0-0.9,0c0,0,0,0,0,0
			c0.3,0,0.7,0,1,0c-0.4,0.1-0.8,0.1-1.3,0.1c-0.1,0-0.1,0-0.2,0C9.1,10.1,9.3,10,9.6,10c0.4,0,0.7-0.1,1.1,0
			c0.4,0.1,0.5-0.3,0.6-0.5c-0.1,0-0.3,0.1-0.4,0.1c-0.4-0.2-0.8-0.1-1.2-0.1c-0.1,0-0.2,0-0.1-0.1c0-0.1,0-0.2,0.2-0.2
			c0.5,0.1,1,0,1.5,0.1c0.1,0,0.1-0.1,0.1-0.1c0.4-0.6,0.4-1.3,0.5-1.9c0.1-0.4,0.2-0.9,0-1.3c0-0.1,0-0.2,0-0.3
			c0-0.3-0.1-0.5-0.2-0.8c0,0,0,0,0,0c-0.2-0.1-0.2-0.4-0.4-0.3c-0.2,0.1,0.1,0.3,0.1,0.5c0.2,0.7,0.1,1.4-0.1,2.1
			c-0.1,0.2-0.1,0.5-0.4,0.6c0,0.1-0.1,0.1-0.1,0.2c-0.1,0.3-0.4,0.4-0.7,0.5c0,0-0.1,0-0.1,0c-0.2,0.1-0.4,0.1-0.6,0l0,0
			c-0.1,0-0.2,0-0.2,0C9,8.1,9,8.3,9,8.4C8.6,8.1,8.7,7.6,8.7,7.2c0-0.2,0.2-0.3,0.4-0.4c0.2-0.1,0.3,0.1,0.5,0.2
			C9.7,6.4,8.9,5.2,8.3,5C8.3,5,8.2,4.9,8.2,5c0,0.1,0,0.1,0.1,0.1c0.2,0.2,0.1,0.4,0.1,0.5c0,0.2,0,0.4,0,0.5C8.4,6.5,8.3,6.8,8,7
			C7.7,7.1,7.4,7,7.2,6.8C6.5,6.3,6.3,5.6,6.4,4.7c0-0.1,0.1-0.2,0-0.3C6.2,4.3,6.1,4.4,6,4.5c0-0.7,0-0.8,1.2-0.7
			C6.2,2.8,5.4,1.7,5.2,0.3z M5,14.3c-0.1-0.1-0.1-0.2-0.1-0.3c-0.1-0.1,0-0.2,0-0.3c0-0.1-0.1-0.3,0.1-0.4c0.2-0.1,0.2-0.2,0.2-0.3
			c0.3-0.9,0.9-1.6,1.7-2C7,11,7.1,11,7.2,11.1c0,0.1-0.1,0.1-0.2,0.2c-0.9,0.3-1.3,1.1-1.6,1.9C5.2,13.5,5.1,13.9,5,14.3z M8.7,9.3
			C8.8,9.4,9,9.2,9,9.4c0,0.2-0.2,0.1-0.3,0.1c-0.1,0-0.1,0-0.2,0c-0.1,0-0.2,0-0.2-0.1c0-0.1,0.1-0.1,0.1-0.1
			C8.6,9.3,8.6,9.3,8.7,9.3z M8.2,10.1c0.1,0,0.3-0.1,0.3,0.1c0,0.2-0.2,0.1-0.3,0.1c-0.1,0-0.1,0-0.2,0c-0.1,0-0.2,0-0.2-0.1
			c0-0.1,0.1-0.1,0.2-0.1C8.1,10.1,8.2,10.1,8.2,10.1z M8.7,11.4c-0.1-0.2-0.4-0.2-0.5-0.4C8.5,10.9,8.7,11.1,8.7,11.4z M8.5,10.8
			c-0.2,0.1-0.2,0-0.3-0.1C8.3,10.8,8.3,10.8,8.5,10.8z"/>
		<path class="st0" d="M5.9,7.1c-0.1,0.2-0.2,0-0.3,0.1c-1,0.3-1.2,1.1-1.2,2C4.4,9.5,4.7,9.9,5,10c0.1-0.2,0.2-0.2,0.3,0
			c0.1,0.2,0.3,0.2,0.5,0.2c0.2,0,0.4,0.1,0.6,0.1c0.1,0,0.1,0,0.2-0.1c0.1,0,0.3,0,0.3-0.2C7,9.6,7.3,9.2,7,8.7
			c0,0.2,0,0.4-0.2,0.5c-0.1,0.1-0.2,0.1-0.2,0C6.6,8.9,6.4,9.2,6.3,9.3C6,9.6,5.5,9.5,5.2,9.1c-0.1-0.2-0.2-0.5,0-0.7
			C5.4,8.1,5.6,8,5.9,7.9c0.3-0.1,0.6,0.3,0.7,0.6c0,0.1,0,0.2,0,0.3c0,0.2,0.1,0.2,0.3,0.1C6.9,8.9,7,8.8,6.9,8.7
			c0-0.1-0.1-0.2,0-0.4c0-0.2,0-0.3-0.1-0.4C6.5,7.6,6.3,7.3,5.9,7.1z"/>
		<path class="st0" d="M11.7,4.8c0.1,0,0.1-0.1,0.1-0.2"/>
		<path class="st0" d="M9.7,9.4c0.6,0.1,1.1,0,1.7,0c0.1,0,0.2,0,0.2-0.1c0,0-0.1,0-0.1,0c-0.1,0.1-0.2,0.1-0.3,0.1
			C10.6,9.4,10.2,9.4,9.7,9.4L9.7,9.4z"/>
		<path class="st0" d="M5.3,3.2c-0.1,0-0.1,0-0.1,0c0,0,0,0,0,0.1C5.2,3.2,5.2,3.2,5.3,3.2C5.3,3.2,5.3,3.2,5.3,3.2z"/>
		<path class="st0" d="M8.5,10.8c-0.1,0-0.2-0.1-0.3-0.1"/>
		<path class="st0" d="M10.4,10.9c0,0,0.1-0.1,0.1-0.2C10.5,10.8,10.5,10.9,10.4,10.9L10.4,10.9z"/>
		<path class="st0" d="M7.4,8.4C7.3,8.4,7.3,8.4,7.4,8.4C7.3,8.4,7.4,8.3,7.4,8.4C7.4,8.4,7.4,8.4,7.4,8.4L7.4,8.4z"/>
		<path class="st0" d="M7,8.7c0-0.2,0-0.3-0.1-0.4C6.8,8.4,6.9,8.6,7,8.7C7,8.8,6.9,8.9,6.8,9C6.7,9.1,6.6,9.1,6.5,8.9
			c0-0.1,0-0.2,0-0.3c0-0.3-0.4-0.7-0.7-0.6C5.6,8,5.4,8.1,5.2,8.4c-0.1,0.2-0.1,0.5,0,0.7c0.2,0.4,0.7,0.5,1,0.2
			c0.1-0.1,0.3-0.4,0.4,0.1c0,0,0.2,0.1,0.2,0C7,9.1,7,8.9,7,8.7z M6.3,8.6C6.1,8.7,6.1,8.5,6,8.5c-0.1-0.1-0.4-0.1-0.4,0
			C5.5,8.6,5.3,8.8,5.5,9c0,0,0,0.1,0,0.1c0,0-0.1,0-0.1,0C5.2,9,5.2,8.7,5.2,8.5c0.1-0.3,0.4-0.4,0.7-0.4C6.1,8.2,6.4,8.3,6.3,8.6
			c0.1,0,0.1,0.1,0.1,0.1c0,0.1,0,0.1,0,0.2c0,0-0.1,0-0.1,0c-0.1,0-0.1-0.1,0-0.2C6.2,8.7,6.2,8.7,6.3,8.6z"/>
		<path class="st0" d="M6.3,8.6c0.1-0.3-0.1-0.4-0.3-0.5C5.6,8.1,5.3,8.2,5.2,8.5C5.2,8.7,5.2,9,5.4,9.1c0,0,0.1,0,0.1,0
			c0.1,0,0.1-0.1,0-0.1c-0.3-0.2,0-0.4,0.1-0.6c0-0.1,0.3,0,0.4,0C6.1,8.5,6.1,8.7,6.3,8.6C6.3,8.6,6.3,8.6,6.3,8.6z"/>
		<path class="st0" d="M6.3,8.6c0,0,0,0.1,0,0.1c0,0.1,0,0.1,0,0.2c0,0,0.1,0,0.1,0c0.1,0,0.1-0.1,0-0.2C6.4,8.7,6.3,8.6,6.3,8.6
			C6.3,8.6,6.3,8.6,6.3,8.6z"/>
	</g>
</g>
</svg>
