<?xml version="1.0" encoding="utf-8"?>
<!-- Generator: Adobe Illustrator 22.0.1, SVG Export Plug-In . SVG Version: 6.00 Build 0)  -->
<svg version="1.1" id="圖層_1" xmlns="http://www.w3.org/2000/svg" xmlns:xlink="http://www.w3.org/1999/xlink" x="0px" y="0px"
	 viewBox="0 0 16 16" style="enable-background:new 0 0 16 16;" xml:space="preserve">
<style type="text/css">
	.st0{fill:#363035;}
	.st1{fill:#868386;}
</style>
<g>
	<path class="st0" d="M1.5,4.1c0.3,1.7,5.8,4.1,5.8,4.1c0.2,0.1,0.4,0.1,0.6,0L14.3,5c0.2-0.1,0.2-0.3,0-0.4l-5.8-4
		c-0.2-0.1-0.4-0.1-0.6,0C7.9,0.5,2.6,2.8,1.5,4.1C1.5,4,1.5,4.1,1.5,4.1z"/>
	<g>
		<path class="st0" d="M0.9,8c0-1.2,0.3-4.1,0.6-3.9c1.5,1,3.2,2.2,5.2,3.6c0.3,0.2,0.5,0.8,1,0.6C8,8.3,8.3,7.9,8.6,7.7
			C10,7,11.4,6.3,12.9,5.6c0.6-0.3,1.2-0.4,1.6-0.9c0.2,0.9,0.1,1.8,0.1,2.6l-0.1,4.6l-0.8,0.7c-1.1,1-2.4,1.5-3.7,2.1
			c-0.7,0.3-1.4,0.5-2,0.9c-0.5,0.4-1,0-1.4-0.2c-0.9-0.4-1.6-0.9-2.4-1.5c-0.5-0.5-1.2-0.8-1.8-1.2c-0.5-0.3-0.9-0.8-1.3-1.1
			C0.9,11.3,0.9,8,0.9,8z M9.1,12.3c-0.6,0.5-1,0.9-1,1.7c0,0.4,0.2,0.6,0.6,0.5c0.6-0.1,1.3-1.1,1.2-1.7c0-0.2-0.2-0.4-0.4-0.4
			c-0.5-0.1-0.3-0.3-0.1-0.5c0.4-0.3,0.6-0.8,0.5-1.3c0-0.3-0.2-0.6-0.6-0.5c-0.5,0.1-1.1,0.7-1.2,1.4C8.1,12.1,8.4,12.3,9.1,12.3z
			 M4.7,10.1c0-0.5-0.3-0.9-0.6-1.4C4,8.5,3.7,8.5,3.4,8.5C3.1,8.6,3.1,8.9,3.1,9.1c0,0.6,0.2,1.1,0.6,1.5c0.2,0.2,0.5,0.4,0.8,0.2
			C4.7,10.7,4.7,10.5,4.7,10.1z M5,8.3C5,8.9,5.2,9.4,5.7,9.8c0.4,0.3,0.8,0.1,0.9-0.4C6.7,8.8,6.5,8.2,6,7.8
			C5.8,7.6,5.6,7.4,5.3,7.6C5,7.7,5,8,5,8.3z M3,6.7c0-0.5-0.2-1-0.7-1.4C2.1,5.1,1.9,5,1.7,5.1C1.4,5.3,1.3,5.5,1.3,5.8
			c0,0.6,0.2,1.1,0.6,1.5c0.2,0.2,0.5,0.3,0.7,0.2C3,7.3,3,7,3,6.7z M13.8,11.1c0-0.3,0-0.6-0.3-0.7c-0.3-0.1-0.6,0-0.8,0.2
			c-0.4,0.3-0.5,0.7-0.7,1.1c-0.2,0.4,0.2,0.8,0.7,0.8C13.1,12.4,13.8,11.6,13.8,11.1z M9.5,7.9c-0.4,0-0.7,0.2-1,0.7
			C8.3,8.9,8.2,9.3,8.3,9.8C8.4,10,8.7,10,8.9,10c0.6-0.2,1.1-0.8,1.2-1.4C10.1,8.1,10,7.9,9.5,7.9z M4.8,12.7
			c0,0.6,0.3,1.1,0.7,1.4c0.2,0.1,0.4,0.3,0.7,0.1c0.3-0.1,0.3-0.4,0.3-0.7c-0.1-0.5-0.3-1-0.7-1.4c-0.2-0.2-0.4-0.3-0.7-0.2
			C4.9,12.2,4.8,12.5,4.8,12.7z M1.2,10.3c0,0.5,0.3,1.1,0.8,1.4c0.5,0.3,0.9,0.1,0.9-0.4c0-0.6-0.2-1.2-0.7-1.6
			C1.9,9.6,1.7,9.6,1.4,9.6C1.2,9.7,1.2,10,1.2,10.3z M13.9,8.8c-0.1-0.2,0-0.4-0.3-0.5c-0.3-0.1-0.5-0.1-0.7,0
			c-0.5,0.3-0.8,0.9-0.8,1.5c0,0.4,0.2,0.6,0.7,0.5C13.5,10.1,13.9,9.3,13.9,8.8z M14,6.6c0-0.2,0-0.5-0.2-0.6
			c-0.3-0.2-0.5-0.1-0.7,0.1c-0.5,0.4-0.7,0.8-0.7,1.4C12.3,8,12.6,8.1,13,8C13.5,7.8,14,7.3,14,6.6z"/>
		<path class="st1" d="M9.1,12.3c-0.6,0-1-0.1-0.9-0.8c0.1-0.7,0.6-1.3,1.2-1.4c0.4,0,0.6,0.2,0.6,0.5c0,0.5-0.1,0.9-0.5,1.3
			c-0.2,0.2-0.4,0.4,0.1,0.5c0.2,0,0.3,0.2,0.4,0.4c0.1,0.6-0.6,1.6-1.2,1.7c-0.4,0.1-0.6-0.2-0.6-0.5C8,13.2,8.5,12.7,9.1,12.3z"/>
		<path class="st1" d="M4.7,10.1c0,0.3,0,0.6-0.3,0.8c-0.3,0.1-0.6,0-0.8-0.2C3.2,10.2,3,9.7,3.1,9.1c0-0.2,0.1-0.5,0.4-0.6
			C3.7,8.5,4,8.5,4.2,8.8C4.5,9.2,4.7,9.6,4.7,10.1z"/>
		<path class="st1" d="M5,8.3C5,8,5,7.7,5.3,7.6c0.3-0.1,0.5,0,0.7,0.2c0.4,0.4,0.7,0.9,0.6,1.6c-0.1,0.5-0.5,0.7-0.9,0.4
			C5.2,9.4,5,8.9,5,8.3z"/>
		<path class="st1" d="M3,6.7C3,7,3,7.3,2.7,7.4C2.4,7.5,2.2,7.4,2,7.2C1.6,6.8,1.3,6.3,1.3,5.8c0-0.2,0.1-0.5,0.3-0.6
			c0.3-0.1,0.5,0,0.7,0.2C2.8,5.7,3,6.2,3,6.7z"/>
		<path class="st1" d="M13.8,11.1c0,0.5-0.7,1.4-1.2,1.4c-0.4,0-0.8-0.4-0.7-0.8c0.2-0.4,0.3-0.9,0.7-1.1c0.2-0.2,0.5-0.4,0.8-0.2
			C13.8,10.5,13.9,10.8,13.8,11.1z"/>
		<path class="st1" d="M9.5,7.9c0.5,0,0.6,0.2,0.6,0.6C10,9.1,9.5,9.8,8.9,10C8.7,10,8.4,10,8.3,9.8C8.2,9.3,8.3,8.9,8.5,8.6
			C8.8,8.1,9.1,7.9,9.5,7.9z"/>
		<path class="st1" d="M4.8,12.7c0-0.3,0.1-0.6,0.3-0.7c0.3-0.1,0.5,0,0.7,0.2c0.4,0.4,0.6,0.8,0.7,1.4c0,0.3,0,0.5-0.3,0.7
			c-0.2,0.1-0.5,0-0.7-0.1C5.1,13.8,4.9,13.3,4.8,12.7z"/>
		<path class="st1" d="M1.2,10.3c0-0.3,0-0.6,0.3-0.7c0.2-0.1,0.5-0.1,0.7,0.1c0.5,0.4,0.8,1,0.7,1.6c0,0.6-0.4,0.7-0.9,0.4
			C1.5,11.4,1.2,10.8,1.2,10.3z"/>
		<path class="st1" d="M13.9,8.8c-0.1,0.6-0.4,1.3-1.1,1.5c-0.5,0.1-0.7-0.1-0.7-0.5c0-0.6,0.3-1.1,0.8-1.5c0.2-0.1,0.4-0.1,0.7,0
			C13.9,8.4,13.8,8.6,13.9,8.8z"/>
		<path class="st1" d="M14,6.6c0,0.7-0.5,1.2-1,1.4c-0.4,0.2-0.7,0-0.7-0.5c0-0.6,0.3-1.1,0.7-1.4c0.2-0.2,0.5-0.3,0.7-0.1
			C14,6.1,14,6.4,14,6.6z"/>
		<path class="st1" d="M7.4,5.3c0.7,0,1.3,0.4,1.3,0.8c0,0.4-0.7,0.8-1.4,0.7C6.7,6.7,6.2,6.4,6.2,6C6.2,5.6,6.7,5.2,7.4,5.3z"/>
		<path class="st1" d="M11.5,4.8c-0.7,0-1.3-0.4-1.3-0.8c0-0.4,0.6-0.7,1.2-0.7c0,0,0,0,0.1,0c0.7,0,1.2,0.4,1.2,0.8
			C12.7,4.5,12.2,4.8,11.5,4.8z"/>
		<path class="st1" d="M3.8,4.3C3.1,4.3,2.6,4,2.6,3.6c0-0.4,0.5-0.7,1.2-0.7C4.4,2.8,5,3.2,5,3.6C5,4,4.5,4.3,3.8,4.3z"/>
		<path class="st1" d="M7.9,2.3C7.2,2.3,6.6,2,6.7,1.6c0-0.4,0.5-0.7,1.2-0.7c0.7,0,1.2,0.3,1.2,0.7C9,2,8.5,2.3,7.9,2.3z"/>
	</g>
</g>
</svg>
