<?xml version="1.0" encoding="utf-8"?>
<!-- Generator: Adobe Illustrator 22.0.1, SVG Export Plug-In . SVG Version: 6.00 Build 0)  -->
<svg version="1.1" id="圖層_1" xmlns="http://www.w3.org/2000/svg" xmlns:xlink="http://www.w3.org/1999/xlink" x="0px" y="0px"
	 viewBox="0 0 16 16" style="enable-background:new 0 0 16 16;" xml:space="preserve">
<style type="text/css">
	.st0{fill:#4E4D4D;}
</style>
<g>
	<g>
		<path class="st0" d="M7.2,2.3C7,2.7,6.8,3.1,6.6,3.5c0,0.1-0.2,0.3,0.1,0.2c0.1-0.1,0.2-0.1,0.4-0.1c0.3,0,0.6,0,0.8-0.4
			C7.9,2.9,8.1,3,8.2,3.3c0.1,0.3,0.3,0.3,0.5,0.3c0.2,0,0.3,0,0.4,0.2c0.1,0,0.2,0.1,0.3,0c0.1-0.1,0-0.2-0.1-0.3
			c-0.2-0.4-0.5-0.6-0.6-1C8.4,2.2,8.5,2,8.7,1.7C8.6,1.3,8.5,0.9,8.2,0.6c-0.2,0-0.4,0-0.6,0c0.4,0.3,0.1,0.6-0.1,1
			c-0.2-0.4-0.5-0.7-0.7-1c-0.1,0-0.2,0-0.3,0C6.8,0.9,7,1.2,7.3,1.5c0.2,0.3,0.2,0.5,0,0.7C7.2,2.2,7.2,2.3,7.2,2.3z"/>
		<path class="st0" d="M5.5,0.6C5.7,0.7,5.9,0.9,6.2,1c0.3,0,0.4,0.2,0.4,0.4c0.1,0.1,0.2,0.2,0.3,0.4C7,1.8,7,1.7,7.1,1.7
			C6.9,1.3,6.7,0.9,6.3,0.6C6,0.6,5.8,0.6,5.5,0.6z"/>
		<path class="st0" d="M9.9,9.6c-0.2,0-0.2-0.2-0.3-0.4C9.5,9.1,9.5,8.9,9.7,8.8c0.2-0.1,0.4-0.1,0.5,0.1c0.2,0.3,0.4,0.6,0.6,0.9
			c0.5-0.1,0.5-0.4,0.6-0.9c0.1,0.2,0.2,0.3,0.4,0.4c0.1-0.1,0.3,0,0.1-0.2c-0.1-0.1-0.2-0.3-0.2-0.4c-0.1-0.1-0.4-0.1-0.4-0.4
			c0-0.3-0.1-0.5,0.2-0.7c0.3-0.1,0.5,0,0.7,0.1c0.1,0.1,0.2,0.2,0.4,0.3c0.1-0.2,0.1-0.3,0.2-0.5c0.1-0.1,0-0.3,0.3-0.3
			c0.2,0,0.1,0.2,0.1,0.3c0,0.1,0,0.1,0,0.2c0.2-0.2,0-0.6,0.3-0.8c0-0.1,0-0.2,0.1-0.3c-0.3,0-0.7,0.3-1,0c-0.2-0.2,0,0.4-0.3,0.1
			c-0.3-0.4-0.1-0.6,0.1-0.9c0.2-0.4,0.6-0.3,0.9-0.2c0.3,0.1,0.6,0.1,0.8,0.4c-0.1-0.6-0.3-1.2-0.6-1.7c0,0-0.2,0-0.2,0
			c-0.9,0-1.8,0-2.7,0c-0.4,0-0.7,0-1.1,0C9.1,4.2,9,4.1,8.9,4C8.8,4,8.7,4,8.7,4C8.6,4,8.4,4,8.4,4.2c0,0.2,0.2,0.1,0.3,0.2
			c0,0,0.1,0,0.1,0c0.6,0.2,1.2,0.5,1.5,1.1c0.1,0.1,0.2,0.3,0,0.4c-0.1,0.1-0.3,0-0.4-0.1c0,0-0.1-0.1-0.1,0
			c-0.1,0.4-0.3,0-0.5,0.1c0,0,0,0.1,0.1,0.1c0.2,0.1,0.3,0.3,0.2,0.5c0,0.1-0.1,0.2-0.2,0.2c-0.2-0.1-0.5,0-0.5-0.3
			C8.8,6.2,8.7,6,8.8,5.9c0-0.2,0-0.3-0.1-0.4c0,0-0.1-0.1-0.1-0.1c0.1-0.1,0.1,0,0.2,0c-0.2-0.5-0.6-0.5-1-0.5c0,0,0,0-0.1,0
			C7.7,4.9,7.6,5,7.6,5C7,4.9,6.8,5.3,6.5,5.6c0,0.1,0,0.1,0.1,0.2c0.1,0,0.2,0.1,0.2,0.2C6.9,6.1,7.1,6,7.2,6.2
			c0,0.1,0,0.3-0.1,0.3c-0.2,0.1-0.5,0.2-0.7,0C6.2,6.4,6.3,6.1,6.5,6c0,0,0-0.1,0-0.1C6.2,6,6,5.8,5.7,5.8c-0.2,0-0.2-0.1-0.1-0.3
			C6,4.7,6.7,4.4,7.5,4.2C7.4,4.1,7.3,4.1,7.2,4l0,0C6.9,4.1,6.7,4.2,6.4,4.1c-0.8,0-1.6,0.1-2.4,0c-0.5,0-1,0-1.4,0
			c-0.2,0-0.4,0.3-0.4,0.5c0,0.5-0.3,0.9-0.4,1.4c0.2,0,0.2-0.1,0.3-0.2c0.4-0.3,0.9-0.5,1.4-0.2C3.9,5.7,3.7,5.9,3.8,6
			c0,0,0,0.1,0,0.1c0,0.1,0,0.2,0,0.2c0.1,0.1,0,0.3-0.1,0.4c-0.1,0.3-0.2,0.3-0.4,0c-0.3,0-0.6,0-0.8,0.2c0.2,0.2,0.4,0.3,0.7,0.3
			c0.2,0,0.3,0.1,0.2,0.3C3.3,7.7,3.5,7.7,3.7,7.7c0.1,0,0.1-0.1,0.2-0.1c0.5-0.2,0.9,0,0.8,0.6c0.1,0,0.2,0.1,0.2,0.2
			c0.2,0.2,0.3,0.4,0.6,0.5C5.8,8.7,6,8.5,6.3,8.8c0.2,0.3,0.1,0.6-0.1,0.8C6.4,9.9,6.3,10,6,10c0,0,0,0.1,0,0.1
			c0.2-0.2,0.5,0,0.6,0.1c0.4,0.2,0.9,0.2,1.3,0.3c0.7,0.2,1.4-0.1,2-0.2l0,0c0,0,0,0,0-0.1c-0.2,0-0.2-0.1-0.1-0.2
			C10,9.9,9.9,9.8,9.9,9.6z M6.8,9.7C6.8,9.7,6.8,9.7,6.8,9.7C6.8,9.7,6.8,9.7,6.8,9.7C6.8,9.8,6.7,9.9,6.6,9.9
			C6.6,9.7,6.7,9.7,6.8,9.7z M8,10.2c-0.3,0-0.6-0.3-0.9-0.4C7.1,9.8,7,9.7,7,9.7c0-0.1,0.1-0.1,0.1-0.1C7.3,9.6,7.9,10,8,10.2
			c0.1,0,0.2,0,0.2,0.1c0,0,0,0.1,0,0.1C8,10.3,8,10.3,8,10.2z"/>
		<path class="st0" d="M10,10.4c-0.7,0.1-1.3,0.4-2,0.2c-0.4-0.1-0.9-0.1-1.3-0.3C6.5,10.1,6.2,9.9,6,10.1c0,0.1-0.1,0.2-0.2,0.2
			c-0.4-0.1-0.7,0.1-1.1,0.1C5,10.7,5.1,11,4.8,11.5c-0.1,0.2-0.4,0-0.4,0.2c0.2,0.5,0.3,0.5,0.6,0.2c0.2-0.1,0.3,0,0.4,0.1
			c0.1,0.1,0.2,0.2,0.3,0.3C5.9,12.2,6,12,6.1,11.9c-0.1,0.5-0.3,1-0.6,1.5c0,0-0.1,0-0.2,0.1c-0.1,0.1-0.1,0.2-0.2,0.3
			c0.1,0.4-0.3,0.6-0.3,1c0.1,0,0.1,0,0.2,0c0.7-0.3,1.3-0.4,2-0.2c0.2,0.1,0.2-0.1,0.3-0.2c0.2-0.4,0.4-0.8,0.6-1.3
			c0.2,0.5,0.4,0.8,0.6,1.2c0.1,0.2,0.2,0.3,0.4,0.2c0.6-0.1,1.2-0.2,1.8,0.1c0.1,0.1,0.2,0.1,0.3,0c-0.3-0.6-0.6-1.3-1-2
			c0.2,0.1,0.2,0.3,0.3,0.3c0.1,0.1,0.1-0.1,0.2-0.1c0-0.1,0-0.3-0.1-0.3c-0.3-0.3,0-0.5,0.1-0.7c0.1-0.1,0.2-0.1,0.3,0
			c0.3,0.2,0.5,0.1,0.6-0.3c0-0.3-0.3-0.5-0.4-0.7c-0.2-0.4-0.2-0.4,0.2-0.4c0-0.2-0.3-0.2-0.3-0.2c-0.4,0.1-0.6-0.1-0.8-0.4
			C10.2,9.8,10,9.6,9.9,9.6c0,0.1,0.1,0.3,0,0.5c0,0,0.1,0,0.1,0c0.1,0,0.1,0,0.1,0.1C10.1,10.2,10,10.3,10,10.4L10,10.4
			C10,10.3,10,10.3,10,10.4c0.1,0,0.2,0,0.3,0.2c0.1,0,0.2-0.1,0.3,0c0,0.2-0.1,0.1-0.2,0.1c0,0-0.1,0-0.1,0
			C10,10.6,9.9,10.5,10,10.4z"/>
		<path class="st0" d="M12.4,14.1c-0.2,0-0.6,0-0.7,0.2c-0.1,0.3,0.3,0.5,0.3,0.8c0,0.1,0.1,0.1,0.2,0.1c0.9,0,1.7,0,2.6,0
			c0.1,0,0.3,0,0.2-0.2c-0.6,0-1.1,0.1-1.7-0.1c0.4-0.2,1.1,0.2,1-0.6c0,0,0.1,0,0.1-0.1c-0.2-0.4-0.4-0.7-0.5-1.1
			c-0.3-0.7-0.7-1.4-1.1-2.1c-0.2-0.1-0.3,0.2-0.4,0.1c-0.3-0.2-0.6-0.3-0.7-0.7c-0.2,0.1-0.1,0.2,0,0.4c0.3,0.7,0.7,1.4,1.1,2.1
			c0.2,0.3,0.3,0.7,0.5,1c0.1,0.1,0,0.2,0,0.2C13.1,14.2,12.7,14.3,12.4,14.1z"/>
		<path class="st0" d="M2,12.7c-0.2,0.3-0.4,0.6-0.5,0.9c-0.1,0.3-0.2,0.5-0.4,0.7c0,0.2-0.1,0.3-0.3,0.5C0.8,15,0.7,15.2,1,15.2
			c0.8,0,1.7,0,2.5,0c0.2,0,0.3-0.1,0.4-0.2c0.1-0.2,0.2-0.4,0.2-0.5C4.3,14,4.3,14,3.9,14c-0.3,0-0.6,0-0.8,0
			c-0.4,0-0.5-0.2-0.3-0.6c0.2-0.5,0.6-1,0.7-1.5c-0.1,0-0.2,0-0.2-0.1c-0.1-0.2-0.3-0.3-0.5-0.2c0,0,0,0-0.1,0
			C2.4,12,2.2,12.4,2,12.7z M2.8,14.8c0.3,0,0.6-0.1,0.7-0.5c0-0.1,0.1-0.1,0.2-0.1c0.1,0,0.1,0.1,0,0.2c-0.1,0.2-0.2,0.3-0.4,0.3
			C3.1,14.8,3,14.8,2.8,14.8z"/>
		<path class="st0" d="M2.7,11.6c0.2-0.1,0.4,0,0.5,0.2c0,0.1,0.1,0.1,0.2,0.1c0.2-0.4,0.4-0.7,0.6-1.1c0.1-0.3,0-0.4-0.1-0.5
			c-0.1-0.1-0.3-0.2-0.4-0.3c-0.1-0.1-0.2-0.1-0.2,0c-0.1,0.5-0.4,0.9-0.6,1.4C2.7,11.5,2.7,11.5,2.7,11.6z"/>
		<path class="st0" d="M5.5,8.9c-0.3,0-0.4-0.3-0.6-0.5C4.9,8.4,4.8,8.2,4.7,8.3c-0.4,0-0.3,0.3-0.3,0.5c0,0.1,0,0.1-0.1,0.1l0,0
			c0,0.1,0,0.1-0.1,0.1C4,9,3.9,9,3.9,9.2c0,0.2,0.2,0.1,0.2,0.1c0.2,0.2,0.5,0.4,0.7,0.6C5,10,5.1,10.1,5.1,9.8
			C5.2,9.5,5.5,9.2,5.5,8.9z"/>
		<path class="st0" d="M13.4,6.9c-0.3,0.2-0.1,0.6-0.3,0.8c0,0,0-0.1,0-0.2c0-0.1,0-0.3-0.1-0.3c-0.2,0-0.2,0.1-0.3,0.3
			c-0.1,0.1-0.1,0.3-0.2,0.5c0.2,0.3,0.4,0.6,0.6,0.9c0.1,0.3,0.2,0.6,0.4,1c0-0.9,0-1.8,0-2.7C13.5,7.1,13.4,7,13.4,6.9z"/>
		<path class="st0" d="M3.7,7.7c-0.2,0-0.4,0-0.3-0.3c0-0.2-0.1-0.3-0.2-0.3c-0.3,0-0.5-0.1-0.7-0.3c-0.1,0.4,0,0.7,0,1.1
			c0,0.3,0.2-0.1,0.2,0.1c0,0.2,0,0.3,0,0.5c0,0.1,0,0.1,0.1,0.2C3,8.3,3.4,8,3.7,7.7z"/>
		<path class="st0" d="M10.5,12.9c-0.1,0,0,0.2-0.2,0.1c-0.1-0.1-0.1-0.2-0.3-0.3c0.4,0.7,0.7,1.4,1,2c0.2,0.2,0.3,0.5,0.7,0.7
			C11.4,14.5,10.8,13.8,10.5,12.9z"/>
		<path class="st0" d="M14.1,13.1c0.1,0.4,0.3,0.7,0.5,1.1c0,0.1,0,0.1-0.1,0.1c0,0.8-0.6,0.5-1,0.6c0.6,0.2,1.1,0,1.7,0.1
			c-0.4-0.4-0.4-1.1-0.8-1.6C14.3,13.3,14.3,13.2,14.1,13.1z"/>
		<path class="st0" d="M4.4,11.7c0-0.3,0.3-0.1,0.4-0.2C5.1,11,5,10.7,4.7,10.4C4.1,10.5,4,11.3,4.4,11.7z"/>
		<path class="st0" d="M7.2,4L7.2,4C7.4,3.7,7.8,3.7,8,3.3C8.1,3.8,8.4,3.8,8.7,4C8.7,4,8.8,4,8.9,4C9,3.9,9,3.8,9.1,3.8
			C9.1,3.5,8.9,3.6,8.7,3.6c-0.3,0-0.4-0.1-0.5-0.3C8.1,3,7.9,2.9,7.8,3.2C7.7,3.6,7.4,3.6,7.1,3.6c-0.1,0-0.3,0-0.4,0.1
			C6.9,3.8,7.1,3.8,7.2,4z"/>
		<path class="st0" d="M11.9,10.4c0.1,0.4,0.5,0.5,0.7,0.7c0.2,0.1,0.3-0.2,0.4-0.1c-0.1-0.1-0.1-0.2-0.2-0.4
			C12.5,9.9,12.5,9.9,11.9,10.4z"/>
		<path class="st0" d="M5.3,13.4c0.1,0,0.1,0,0.2-0.1c0.3-0.4,0.5-0.9,0.6-1.5C6,12,5.9,12.2,5.7,12.3C5.5,12.7,5.2,13,5.3,13.4z"/>
		<path class="st0" d="M11.4,10.5c-0.4,0-0.4,0-0.2,0.4c0.1,0.3,0.4,0.4,0.4,0.7C11.8,11.2,11.7,10.8,11.4,10.5z"/>
		<path class="st0" d="M4.9,14.7c0-0.4,0.4-0.6,0.3-1c-0.2,0-0.3,0-0.4,0.2c-0.1,0.3-0.3,0.6-0.4,0.9c0,0.1-0.1,0.2,0,0.3
			c0.1,0.1,0.2-0.1,0.2-0.2C4.7,14.9,4.8,14.8,4.9,14.7z"/>
		<path class="st0" d="M8.7,1.7C8.5,2,8.4,2.2,8.8,2.5C9,2.2,8.9,1.9,8.7,1.7z"/>
		<path class="st0" d="M11.7,9.3c-0.1-0.1-0.3-0.2-0.4-0.4c-0.1,0.4-0.1,0.8-0.6,0.9c0,0.2,0,0.3,0.2,0.2
			C11.2,9.7,11.5,9.6,11.7,9.3z"/>
		<path class="st0" d="M12.4,14.1c0.3,0.2,0.6,0.1,1,0.1c0.1,0,0.1-0.1,0-0.2C13.1,14,12.8,14.1,12.4,14.1z"/>
		<path class="st0" d="M3.4,6.7c0.1,0.3,0.3,0.3,0.4,0c0.1-0.1,0.1-0.2,0.1-0.4C3.5,6.2,3.5,6.6,3.4,6.7z"/>
		<path class="st0" d="M2.4,6c0.3-0.2,0.7-0.3,1.1,0.1C3.2,5.6,2.9,5.6,2.4,6L2.4,6z"/>
		<path class="st0" d="M2,12.7c0.2-0.4,0.4-0.7,0.6-1.1C2.2,11.9,2.1,12.3,2,12.7z"/>
		<path class="st0" d="M1.1,14.4c0.2-0.2,0.3-0.5,0.4-0.7C1.3,13.9,1.1,14.1,1.1,14.4z"/>
		<path class="st0" d="M2.3,6.9c0-0.3-0.2-0.3-0.5-0.3C2,6.7,2.2,6.8,2.3,6.9z"/>
		<path class="st0" d="M6,10c0.3,0,0.4-0.1,0.2-0.3c-0.1,0-0.2-0.1-0.2,0C5.9,9.8,5.8,9.9,6,10z"/>
		<path class="st0" d="M7.1,2.1c0-0.1,0.2-0.3,0-0.4C7,1.7,7,1.8,6.9,1.8C6.9,2,7,2,7.1,2.1z"/>
		<path class="st0" d="M6.6,1.5c0-0.2-0.1-0.4-0.4-0.4C6.3,1.2,6.4,1.4,6.6,1.5z"/>
		<path class="st0" d="M11.2,8.3c0,0.2,0.3,0.2,0.4,0.4C11.4,8.6,11.6,8.1,11.2,8.3z"/>
		<path class="st0" d="M7.2,2.2C7.2,2.2,7.2,2.2,7.2,2.2c-0.1,0-0.1,0.1-0.1,0.1C7.2,2.3,7.2,2.2,7.2,2.2z"/>
		<path class="st0" d="M2.4,6c0,0-0.1,0-0.1,0c0,0,0,0,0,0C2.3,6,2.4,6,2.4,6L2.4,6z"/>
		<path class="st0" d="M4.2,9c0.1,0,0.1-0.1,0.1-0.1C4.1,8.9,4.2,8.9,4.2,9z"/>
		<path class="st0" d="M4.2,8.9c0.1,0,0.1,0,0.1-0.1C4.3,8.8,4.2,8.8,4.2,8.9z"/>
		<path class="st0" d="M3.8,6.1c0,0,0-0.1,0-0.1C3.8,6,3.8,6,3.8,6.1C3.8,6,3.8,6.1,3.8,6.1z"/>
		<path class="st0" d="M8.8,4.4C9,4.5,9.3,4.7,9.5,4.9c0.2,0.2,0.4,0.4,0,0.6C9.5,5.6,9.4,5.7,9.3,5.8c0.1-0.1,0.4,0.3,0.5-0.1
			c0,0,0.1,0,0.1,0c0.1,0.1,0.3,0.2,0.4,0.1c0.1-0.1,0-0.3,0-0.4C9.9,4.8,9.4,4.5,8.8,4.4z"/>
		<path class="st0" d="M6.5,5.6C6.3,5.4,6.1,5.5,5.9,5.5c-0.1,0.1-0.2,0-0.3,0C5.5,5.7,5.5,5.8,5.7,5.8C6,5.8,6.2,6,6.5,5.9
			c0,0,0,0,0.1-0.1C6.5,5.8,6.5,5.7,6.5,5.6z"/>
		<path class="st0" d="M8,10.2C7.9,10,7.3,9.6,7.1,9.6C7.1,9.6,7,9.6,7,9.7c0,0.1,0,0.1,0.1,0.2C7.4,9.9,7.6,10.2,8,10.2L8,10.2z"/>
		<path class="st0" d="M7.8,4.9C7.9,4.6,8,4.3,7.9,4C7.8,4.3,7.7,4.6,7.8,4.9C7.8,4.9,7.8,4.9,7.8,4.9z"/>
		<path class="st0" d="M8.8,6.3c0.1-0.2,0.2-0.1,0.3,0c0.1,0,0.1,0.1,0.2,0c0-0.1,0-0.1-0.1-0.2C9.1,6,9,6,8.8,5.9
			C8.7,6,8.8,6.2,8.8,6.3z"/>
		<path class="st0" d="M6.8,9.7c-0.1,0-0.2,0-0.3,0.2C6.7,9.9,6.8,9.8,6.8,9.7L6.8,9.7z"/>
		<path class="st0" d="M8,10.2c0,0.1,0.1,0.1,0.2,0.1c0,0,0,0,0-0.1C8.1,10.2,8.1,10.2,8,10.2L8,10.2z"/>
		<path class="st0" d="M6.5,6C6.6,6,6.6,6,6.7,6.1c0-0.1-0.1-0.2-0.2-0.2C6.5,5.9,6.5,5.9,6.5,6C6.5,5.9,6.5,5.9,6.5,6z"/>
		<path class="st0" d="M8.7,5.5c0,0,0.1-0.1,0.1-0.1c-0.1,0-0.1-0.1-0.2,0C8.6,5.3,8.6,5.4,8.7,5.5z"/>
		<path class="st0" d="M9.9,10.1c-0.1,0.1-0.1,0.2,0.1,0.2l0,0C10,10.2,10,10.2,9.9,10.1C9.9,10.1,9.9,10.1,9.9,10.1z"/>
		<path class="st0" d="M6.8,9.7C6.8,9.7,6.8,9.7,6.8,9.7C6.8,9.7,6.8,9.7,6.8,9.7L6.8,9.7z"/>
		<path class="st0" d="M10.2,10.6c0,0,0.1,0,0.1,0c0.1,0,0.3,0.1,0.2-0.1C10.5,10.4,10.3,10.5,10.2,10.6
			C10.2,10.5,10.2,10.6,10.2,10.6z"/>
		<path class="st0" d="M10.2,10.5c0-0.2-0.2-0.1-0.3-0.1l0,0C9.9,10.5,10,10.6,10.2,10.5C10.2,10.6,10.2,10.5,10.2,10.5z"/>
		<path class="st0" d="M10,10.1c0,0.1,0,0.1,0,0.2c0.1,0,0.1,0,0.1-0.1C10.1,10.1,10,10.1,10,10.1z"/>
		<path class="st0" d="M2.8,14.8c0.2,0,0.4,0,0.5,0c0.2,0,0.3-0.1,0.4-0.3c0-0.1,0.1-0.2,0-0.2c-0.1,0-0.2,0-0.2,0.1
			C3.3,14.7,3.1,14.8,2.8,14.8z"/>
		<path class="st0" d="M14.5,14.3C14.6,14.4,14.6,14.3,14.5,14.3C14.6,14.2,14.5,14.3,14.5,14.3z"/>
	</g>
</g>
</svg>
