<?xml version="1.0" encoding="utf-8"?>
<!-- Generator: Adobe Illustrator 22.0.1, SVG Export Plug-In . SVG Version: 6.00 Build 0)  -->
<svg version="1.1" id="圖層_1" xmlns="http://www.w3.org/2000/svg" xmlns:xlink="http://www.w3.org/1999/xlink" x="0px" y="0px"
	 viewBox="0 0 16 16" style="enable-background:new 0 0 16 16;" xml:space="preserve">
<style type="text/css">
	.st0{fill:#4E4D4D;}
</style>
<g>
	<g>
		<path class="st0" d="M12.5,12.4c0.4-0.4,0.5-1,1-1.3c0.3-0.3,0.5-0.8,0.5-1.3c0-0.1,0-0.1-0.1-0.2c-0.3-0.2-0.1-0.3,0.1-0.3
			c0.2-0.1,0.4-0.2,0.3-0.5c0-0.3,0.3-0.2,0.4-0.4c-0.3,0-0.7,0.1-1.1-0.1c-0.1,0-0.1,0.3-0.3,0.1c-0.4-0.3-0.8-0.2-1,0.3
			c-0.1,0.2-0.7,0.4-0.8,0.3c-0.1-0.1-0.1-0.1-0.1-0.2c0.1-0.5,0.5-0.8,0.9-0.9c0.2,0,0.5,0.1,0.7-0.1l0,0c-0.2-0.2-0.4,0-0.7-0.1
			c-0.4-0.1-0.8-0.3-1.1,0.2c0,0-0.1,0-0.2,0.1c0.3,0.3,0.2,0.9-0.1,1.2c-0.1,0.1-0.2,0.2-0.2,0.3c-0.3,0.7-0.8,1.1-1.5,1.2
			c-0.9,0.1-1.6,0-1.8-1.1C7.5,9.1,7.4,8.7,7.3,8.4c0-0.1,0-0.2,0.1-0.2C7.2,8.1,7.2,8.3,7.1,8.3c-0.3,0.2-0.4,0-0.4-0.2
			c0.1-0.5-0.2-0.3-0.4-0.2l0,0c0,0.3,0,0.5,0.1,0.8c0,0.4,0.1,0.9,0.4,1.2c0.6,0.5,1.3,0.9,2.1,1.1c0.3,0,0.5,0.1,0.8,0.1
			c0,0,0.1-0.1,0.1-0.1c0.4-0.1,1,0,1-0.7c0,0,0-0.1,0.1-0.1c0.3-0.2,0.3-0.5,0.4-0.8c0-0.2,0.1-0.3,0.3-0.2
			c0.4,0.2,0.8,0.4,1.2,0.4c0.1,0,0.2,0,0.1,0.1c-0.2,0.4,0.2,0.4,0.3,0.5c-0.1,0.2-0.2,0.1-0.4,0.1c-0.3-0.1-0.6,0-0.6,0.4
			c0,0.3-0.2,0.2-0.4,0.2c-0.3-0.1-0.5,0.1-0.5,0.3c0,0.2-0.1,0.3-0.3,0.1c-0.1-0.1-0.2-0.2-0.4-0.1c-0.2,0.1,0,0.3,0,0.4
			c0,0.1,0,0.2,0,0.3c0,0.1-0.1,0.1-0.2,0c-0.2-0.2-0.3-0.4-0.5,0c0,0-0.1,0-0.1,0c-0.3-0.4-0.6,0-0.9-0.1c0.1,0.3,0.1,0.6,0.5,0.7
			c0.3,0,0.1-0.2,0.3-0.3c0,0.3,0.2,0.5,0.4,0.7l0,0c0.3,0.1,0.5-0.2,0.8-0.1c0.2,0.1,0.4,0,0.6-0.1C12,12.6,12.2,12.5,12.5,12.4z"
			/>
		<path class="st0" d="M8.9,11c-0.8-0.2-1.5-0.5-2.1-1.1C6.5,9.6,6.4,9.1,6.4,8.7c0-0.3,0-0.5-0.1-0.8C5.9,8.5,6,9.1,6.1,9.8
			c0.1,0.5,0.5,1,0.7,1.4c0.4,0.5,0.9,1,1.6,1.2c0.6,0.2,1.1,0.5,1.7,0.7c0.1,0,0.2,0.1,0.3,0c-0.1-0.2-0.3-0.4-0.4-0.7
			c-0.2,0,0,0.3-0.3,0.3c-0.4,0-0.4-0.3-0.5-0.7c0.3,0.1,0.6-0.3,0.9,0.1c0,0,0.1,0,0.1,0c0.1-0.4,0.3-0.3,0.5,0c0,0,0.1,0,0.2,0
			c0.1-0.1,0.1-0.2,0-0.3c-0.1-0.1-0.2-0.3,0-0.4c0.1-0.1,0.2,0,0.4,0.1c0.2,0.1,0.2,0.1,0.3-0.1c0-0.3,0.2-0.4,0.5-0.3
			c0.2,0.1,0.4,0.2,0.4-0.2c0.1-0.4,0.3-0.5,0.6-0.4c0.1,0,0.3,0.1,0.4-0.1c-0.2-0.1-0.6-0.1-0.3-0.5c0-0.1-0.1-0.1-0.1-0.1
			c-0.5,0-0.9-0.2-1.2-0.4c-0.2-0.1-0.3-0.1-0.3,0.2c-0.1,0.3-0.1,0.6-0.4,0.8c0,0-0.1,0.1-0.1,0.1c0,0.7-0.6,0.6-1,0.7
			c-0.1,0-0.1,0.1-0.1,0.1c-0.1,0.1-0.1,0.2-0.2,0.2c-0.1,0.1-0.1,0.3-0.3,0.2C9,11.5,9,11.4,9,11.3C8.9,11.2,8.9,11.1,8.9,11z"/>
		<path class="st0" d="M7.8,3.3C7.8,3.3,7.8,3.3,7.8,3.3c-0.1,0-0.1,0-0.1,0C7.7,3.3,7.7,3.3,7.8,3.3C7.7,3.2,7.7,3.1,7.7,3
			C7.5,3,7.4,2.9,7.4,2.7c0-0.2,0.2-0.2,0.3-0.2c0-0.6,0.2-0.8,0.7-0.8C8.2,1.4,8,1.3,7.7,1.3c-0.1,0-0.3,0-0.3-0.2
			C7.3,1.1,7.1,1.2,7,1C6.9,0.8,6.7,1,6.5,1C6.5,1.2,6.7,1.1,6.7,1.2c0.1,0.2,0.4,0.2,0.4,0.5c0,0,0.1,0.1,0.1,0.2c0,0-0.1,0-0.1,0
			c0-0.1,0-0.1,0-0.2C7,1.8,6.8,2,6.8,2.2c0,0.3-0.1,0.4-0.2,0.7c0.1,0.2,0.1,0.5,0,0.7c-0.2,0.3,0,0.7-0.3,1c0,0,0,0.1,0.1,0.1
			c0,0,0.1,0.1,0.1,0.1l0,0c0,0,0.1,0,0.1,0c0-0.1,0.1-0.2,0.2-0.2c0.1,0,0.2,0,0.3-0.2c0.2-0.2,0.4-0.3,0.6-0.3
			c0.3,0,0.6-0.3,0.8-0.5c0.1,0.2,0,0.3,0,0.4C8.4,4.3,8.4,4.3,8.8,4.3c0.4,0,0.9-0.1,1.3,0c0.5,0.2,0.6-0.3,0.9-0.4
			c-0.3,0-0.5-0.1-0.5-0.4c0-0.1,0-0.2-0.2-0.2c-0.1,0-0.2,0.1-0.2,0c-0.1-0.1,0-0.2,0.1-0.3c0.4-0.3,0.5-0.8,1-1
			c0.1,0,0.1-0.1,0.1-0.1c-0.1-0.3-0.2-0.6-0.3-0.8c0-0.1-0.2-0.1-0.3-0.1c-0.1,0,0,0.1,0,0.2c0,0.1,0,0.2-0.1,0.2
			c-0.3,0-0.3,0.1-0.3,0.3c-0.1,0.3,0.1,0.3,0.2,0.5c-0.3,0-0.6-0.1-0.6,0.2C9.3,2.9,9.1,3.4,8.6,3.4C8.4,3.4,8.2,3.5,8,3.3
			C7.9,3.4,7.9,3.5,7.8,3.3z"/>
		<path class="st0" d="M9.7,2.6c0.1-0.4,0.4-0.2,0.6-0.2C10.2,2.2,9.9,2.2,10,1.9c0.1-0.2,0.1-0.4,0.3-0.3c0.1,0,0.1-0.1,0.1-0.2
			c0-0.1-0.1-0.2,0-0.2c0.1,0,0.2,0,0.3,0.1c0.1,0.3,0.2,0.5,0.3,0.8c0,0.1,0,0.1-0.1,0.1c-0.4,0.2-0.6,0.7-1,1
			C9.9,3.3,9.9,3.3,9.9,3.4c0.1,0.1,0.2,0,0.2,0c0.2-0.1,0.2,0.1,0.2,0.2c0.1,0.3,0.2,0.4,0.5,0.4c-0.3,0.2-0.3,0.6-0.9,0.4
			c-0.4-0.1-0.8,0-1.3,0C8.4,4.3,8.4,4.3,8.5,4c0-0.1,0.1-0.2,0-0.4C8.3,3.8,8.1,4.1,7.7,4.1c-0.3,0-0.4,0.1-0.6,0.3
			c0.5,0.2,0.5,0.2,0.1,0.6C7.1,5,7.1,5.1,7,5.1l0,0c0,0.2,0.1,0.2,0.3,0.1c0.7-0.4,2-0.2,2.7,0.3C10.2,5.8,10.6,5.9,11,6
			c0.2,0.1,0.3,0,0.2-0.2c-0.1,0-0.2,0-0.2-0.2c0.2-0.1,0.4,0.1,0.5-0.1c-0.2-0.2-0.4-0.4-0.5-0.6c-0.1-0.2,0.2-0.3,0-0.4
			c-0.5-0.1,0-0.3,0-0.3c0.1-0.1,0.3-0.2,0.3-0.3c-0.1,0-0.1-0.1-0.2-0.1c-0.3,0-0.5-0.1-0.5-0.5c0-0.3,0.1-0.6,0.5-0.7
			c0.1,0,0.1,0,0.2-0.1c0.2-0.1,0.5,0.1,0.4-0.2c0-0.3,0-0.6-0.5-0.6c-0.3,0-0.3-0.3-0.4-0.5c-0.3-0.4-0.6-0.1-1-0.1
			c-0.1,0-0.2,0.1-0.2,0.2C9.8,1.6,9.6,2,9.5,2.4C9.5,2.5,9.6,2.5,9.7,2.6z"/>
		<path class="st0" d="M11.1,7.9c0.1,0,0.1,0,0.2-0.1c0.3-0.5,0.8-0.3,1.1-0.2c0.2,0.1,0.5-0.1,0.7,0.1c0-0.1,0-0.1,0.1-0.1
			c0,0,0,0,0,0.1c0,0.1-0.1,0.1-0.2,0.1c-0.2,0.2-0.5,0.1-0.7,0.1c-0.5,0.1-0.9,0.4-0.9,0.9c0,0.1,0,0.2,0.1,0.2
			c0.2,0.1,0.8-0.2,0.8-0.3c0.2-0.5,0.6-0.6,1-0.3c0.2,0.2,0.2-0.1,0.3-0.1c0-0.1-0.1-0.3-0.1-0.4c0-0.6,0.2-0.8,0.8-0.7
			c0.1,0,0.2,0,0.3,0C14.9,7,15,6.1,14.9,5.9c-0.3,0.2-0.2,0.7-0.6,0.9c0-0.2,0.2-0.3-0.1-0.3c-0.3,0-0.5,0.3-0.8,0.4
			C13.1,6.9,13,7,13.2,7.2c0.1,0.1,0.1,0.2-0.1,0.2c-0.5,0-0.9,0.1-1.4-0.2c0.2-0.1,0.4-0.1,0.6-0.1C12,7,12,6.7,12.1,6.5
			c0.1-0.4-0.1-0.5-0.4-0.4c-0.2,0.1-0.4,0.1-0.5,0.2c-0.1,0.1-0.5,0.2,0,0.4c0.2,0.1,0.2,0.4,0.1,0.6C11.1,7.5,11.1,7.7,11.1,7.9z"
			/>
		<path class="st0" d="M6.2,4.6C6,4.4,5.8,4.3,5.5,4.2C5.3,4.1,4.9,3.9,5,3.5C4.9,3.3,4.8,3.2,4.8,3l0,0c-0.3-0.1-0.7,0-0.6,0.2
			c0.1,0.2,0.2,0.5,0.4,0.6C4.9,4,4.9,4.2,5,4.4C4.8,4.5,4.8,4.1,4.5,4.3c0.1,0.1,0.1,0.1,0.1,0.2C4.9,5,4.9,5.2,4.5,5.3
			C4.4,5.7,4,5.8,3.6,5.8C3.3,5.8,3.1,5.5,3,5.2C3,5,2.9,4.9,2.7,5C2.6,5.1,2.4,5.2,2.3,5.5c0,0.1-0.2,0.1-0.2,0.3
			c0.1,0.1,0.2,0,0.4,0.1c0-0.1,0.1-0.1,0.1-0.1c0,0,0.1,0,0.1,0l0,0c0.6,0.2,1,0.5,0.8,0.9C3.4,7.1,3.7,7.2,3.9,7.4
			c0.2,0,0.3,0,0.5,0c0.2-0.3-0.1-0.1-0.2-0.2c-0.1,0-0.2,0-0.2-0.1C4,7.1,4.1,7,4.1,7c0.3-0.2,0.4-0.5,0.7-0.8l0,0
			c0-0.1-0.1-0.1-0.1-0.2c0,0,0,0-0.1-0.1c0,0-0.1,0-0.1-0.1c0,0-0.1-0.1,0-0.1c0,0,0.1,0,0.1,0.1c0,0.1,0,0.1-0.1,0.1
			c0-0.2,0.1,0,0.2,0l0,0C4.8,5.9,4.9,6.1,5,6c0.1-0.1,0-0.2,0-0.3C4.9,5.5,5,5.5,5.2,5.4c0.2-0.1,0.6,0,0.6-0.4
			c0-0.2,0.2-0.2,0.3,0c0,0.1,0,0.2,0.2,0.2C6.4,5,6.1,4.8,6.2,4.6z"/>
		<path class="st0" d="M11.3,3.9C11.2,4,11.1,4.1,11,4.2c0,0.1-0.5,0.2,0,0.3c0.1,0-0.1,0.2,0,0.4c0.1,0.3,0.4,0.4,0.5,0.6
			c-0.1,0.2-0.3,0.1-0.5,0.1c0,0.2,0.2,0.1,0.2,0.2c0.3,0,0.5-0.2,0.7-0.2c0.2-0.2,0.7-0.2,0.6-0.6c0-0.4,0.2-0.4,0.4-0.5
			c0.4-0.1,0.7-0.3,0.7-0.7c0-0.1,0.1-0.2,0.2-0.2c0,0,0-0.1,0-0.1c0-0.4-0.3-0.6-0.4-0.9c0,0,0,0,0,0.1c0,0,0,0,0,0c0,0,0,0,0,0.1
			c0.1,0.1,0.1,0.1,0.1,0.2c0.1,0.4,0,0.6-0.4,0.6c-0.1,0-0.2,0-0.3,0.1c-0.1,0.1-0.2,0.1-0.3,0.1C12.1,4,11.7,4.1,11.3,3.9z"/>
		<path class="st0" d="M6.5,13.1c-0.1-0.2-0.3-0.5-0.6-0.4C6.1,13,5.8,13,5.7,13.1c-0.2,0.1-0.1-0.1-0.2-0.2
			c-0.1-0.2-0.1-0.3-0.2-0.5c-0.2,0.3-0.2,0.3-0.5,0.2c-0.5-0.2-1.1-0.2-1.3,0.3c-0.1,0.1-0.2,0.4-0.4,0.4c0.1,0.3,0.2,0.7,0.4,1
			c0,0.1,0.1,0.2,0.2,0.2c0.2,0,0.1-0.2,0.1-0.2c-0.3-0.6,0.1-0.8,0.5-1c0.3-0.2,0.8-0.2,1.1,0.1c0.2,0.2,0.5,0.2,0.5,0.6
			c0.1,0,0.2-0.4,0.3-0.1c0.2,0.4,0.6,0.5,0.8,0.8c-0.1,0.1-0.4,0-0.5,0.3c0.1,0,0.1,0,0.2,0C7,15,7.4,15.1,7.2,14.5
			c0-0.1,0.1-0.2,0.1-0.3c0-0.1,0.2-0.2,0-0.2c-0.2-0.1-0.4-0.2-0.5-0.4c-0.3-0.2-0.5-0.5-0.9-0.1C6,13,6.1,13,6.5,13.1z"/>
		<path class="st0" d="M1.7,7.3C1.4,7.7,1.1,8.1,1.1,8.6c0,0.3-0.2,0.3-0.3,0.5C0.7,9.4,0.6,9.6,0.7,10C1,9.4,1.4,9,1.8,8.7
			C2.3,8.4,2.9,8.6,3,9.2c0,0.3,0.1,0.6,0.3,0.8C3.5,9.7,3.6,9.4,4,9.4c0.5-0.2,0.8-0.6,0.7-1.1c0-0.2,0.2-0.2,0.2-0.4
			C4.7,7.8,4.6,7.8,4.4,7.8C4.2,8.1,4.4,8.3,4.5,8.5c-0.2,0-0.2-0.3-0.4-0.3C3.9,8.2,4,8.4,3.9,8.6C3.6,9,3.5,9,3.2,8.5
			C3,8.3,2.9,8.1,2.5,8.1c-0.2,0-0.4,0-0.6,0c-0.1,0-0.3,0-0.3-0.1c0-0.1-0.1-0.2,0.1-0.3C1.9,7.6,1.8,7.5,1.7,7.3z M4.4,8.7
			C4.4,8.7,4.4,8.7,4.4,8.7c0,0.1-0.1,0.1-0.1,0.1C4.3,8.7,4.4,8.6,4.4,8.7C4.4,8.6,4.4,8.6,4.4,8.7z"/>
		<path class="st0" d="M11.6,6.1c0.3-0.1,0.5,0,0.4,0.4c0,0.2,0,0.5,0.3,0.6c-0.2,0-0.4,0.1-0.6,0.1c0.5,0.3,0.9,0.1,1.4,0.2
			c0.2,0,0.2-0.1,0.1-0.2C13,7,13.1,6.9,13.4,6.8c0.3-0.1,0.5-0.3,0.8-0.4c0.3,0,0.2,0.1,0.1,0.3c0.4-0.2,0.3-0.7,0.6-0.9
			c0-0.2,0.2-0.3,0.1-0.5c-0.2,0-0.4,0.2-0.6,0.2C14.1,6,13.6,6,13.2,6.1c-0.3,0-0.5-0.1-0.4-0.5l0,0c-0.3-0.1-0.5,0.1-0.8,0.2
			C11.7,5.8,11.6,5.9,11.6,6.1z"/>
		<path class="st0" d="M3,13.3c0.2-0.1,0.3-0.3,0.4-0.4c0.3-0.5,0.8-0.5,1.3-0.3c0.3,0.1,0.3,0.1,0.5-0.2c0.1,0.2,0.2,0.3,0.2,0.5
			c0,0.1,0,0.3,0.2,0.2C5.8,13,6.1,13,5.9,12.7c-0.4-0.5-0.9-0.9-1-1.5c0-0.1-0.1-0.1-0.2-0.2c-0.3,0-0.6,0-0.7,0.4
			c0.2,0.1,0.6-0.1,0.7,0.2c0,0.1,0.1,0.1,0,0.2c-0.1,0-0.1-0.1-0.1-0.1c-0.2-0.1-0.4,0-0.6,0.1c-0.2,0.4-0.4,0.7-0.8,0.6
			C3,12.7,3.1,13,3,13.3L3,13.3z"/>
		<path class="st0" d="M2.5,5.8c-0.1,0-0.3,0.1-0.4-0.1C2.1,5.6,2.3,5.6,2.3,5.5C2.4,5.2,2.6,5.1,2.7,5c-0.9,0-1.1,0.7-1.6,1.3
			C1.3,6.3,1.4,6,1.6,6c0.1,0.1-0.1,0.3,0,0.4c0.3-0.1,0.6-0.3,1-0.2c0.6,0.1,0.8,0.3,0.7,0.9c0,0.2,0,0.4,0.2,0.5
			c0.2-0.4,0.4,0,0.6,0c0-0.1,0-0.1,0-0.2C3.7,7.2,3.4,7.1,3.5,6.6c0.1-0.4-0.3-0.8-0.8-0.9C2.6,5.8,2.6,5.8,2.5,5.8z"/>
		<path class="st0" d="M7.1,1.7c0-0.3-0.3-0.3-0.4-0.5c0-0.1-0.3-0.1-0.2-0.2C6.7,1,6.9,0.8,7,1c0.1,0.2,0.3,0.1,0.4,0.1
			c0.1,0,0.1,0,0.3,0c-0.3-0.2-0.6-0.5-1-0.4c-0.1,0-0.3,0-0.4-0.1C6,0.5,5.8,0.5,5.6,0.7c0,0,0,0.1,0,0.1c0.2,0,0.3,0.1,0.1,0.2
			c-0.2,0.1-0.2,0.2,0,0.4c0.5,0.4,0.7,0.9,0.9,1.5c0.1-0.2,0.3-0.4,0.2-0.7C6.8,2,7,1.8,7.1,1.7L7.1,1.7z"/>
		<path class="st0" d="M3.9,7.6c-0.2,0.1-0.4-0.3-0.6,0l0,0c0.1,0.1,0,0.1,0,0.1c-0.6,0.2-1,0.2-1.4-0.3c0-0.1-0.1-0.2-0.2,0
			c0,0.1,0.2,0.3-0.1,0.4C1.5,7.8,1.6,7.9,1.6,8c0,0.2,0.2,0.1,0.3,0.1c0.2,0,0.4,0,0.6,0c0.3,0,0.5,0.1,0.7,0.4
			C3.5,9,3.6,9,3.9,8.6C4,8.4,3.9,8.2,4.1,8.2c0.2,0,0.1,0.3,0.4,0.3c0-0.2-0.2-0.4-0.1-0.6C4.2,7.8,4.1,7.7,3.9,7.6z"/>
		<path class="st0" d="M6.2,4.6c0,0.2,0.2,0.4,0,0.6C6.1,5.2,6.1,5.1,6.1,5C6,4.8,5.8,4.8,5.8,5c0,0.4-0.4,0.4-0.6,0.4
			C5,5.5,4.9,5.5,5,5.7C5,5.8,5.1,5.9,5,6C4.9,6.1,4.8,5.9,4.7,5.9c0,0,0,0.1,0,0.1c0,0.1,0.1,0.1,0.1,0.2c0.1,0,0.2,0,0.2,0
			c0.5,0.3,0.7-0.1,1-0.4C6.4,5.6,6.5,5.2,7,5.1l0,0c0-0.2-0.1-0.4-0.3-0.5c0,0-0.1,0-0.1,0c0,0.1,0,0.1,0,0.2c0,0,0,0-0.1,0
			c0,0,0-0.1,0.1-0.1c0,0-0.1-0.1-0.1-0.1C6.3,4.6,6.2,4.6,6.2,4.6z M5.2,6C5.3,6,5.3,5.9,5.2,6c0.1,0,0.3-0.1,0.2,0
			C5.4,6.1,5.3,6,5.2,6z"/>
		<path class="st0" d="M4,9.4C3.6,9.4,3.5,9.7,3.3,10l0,0c-0.1,0.2-0.4,0.1-0.3,0.3c0,0.2,0.3,0.1,0.5,0.2c0.1,0,0.1,0.1,0.2,0.1
			l0,0C4,10.6,3.9,11,4.1,11.1c0.3,0,0.4-0.5,0.8-0.2c0-0.2-0.2-0.3-0.2-0.4c-0.2-0.1-0.3,0.4-0.4,0.1c-0.1-0.3-0.4-0.7-0.2-1
			C4.1,9.4,4.1,9.4,4,9.4z"/>
		<path class="st0" d="M11.9,5.8c0.3-0.1,0.5-0.2,0.8-0.2c0.1-0.3-0.2-0.6,0.2-0.9c0.3-0.2,0.6-0.1,0.9-0.1c0.1,0,0.1,0,0.2,0
			c0.2-0.2,0.2-0.5,0.2-0.8c0-0.2-0.1-0.3-0.3-0.3c-0.1,0.1-0.2,0.1-0.2,0.2c-0.1,0.4-0.4,0.6-0.7,0.7c-0.2,0.1-0.5,0.2-0.4,0.5
			c0.1,0.4-0.4,0.4-0.6,0.6C11.9,5.6,11.9,5.7,11.9,5.8z"/>
		<path class="st0" d="M4.5,4.3C4.8,4.1,4.8,4.5,5,4.4c0-0.2,0-0.4-0.3-0.6C4.5,3.7,4.3,3.4,4.2,3.2C4.1,2.9,4.5,2.8,4.8,3
			c0-0.1,0.2-0.3,0.1-0.4c-0.1-0.1-0.3-0.1-0.5,0C4.1,2.6,3.9,2.9,3.5,3.1C4,3.2,4.1,3.5,4.1,3.9C4.2,4.1,4.4,4.2,4.5,4.3z"/>
		<path class="st0" d="M4.8,6.2C4.6,6.4,4.5,6.8,4.1,7C4.1,7,4,7.1,4.1,7.1c0,0.1,0.1,0,0.2,0.1c0.1,0,0.4-0.1,0.2,0.2
			c0,0.2,0.2,0.3,0.4,0.3c0.1,0,0.2-0.1,0.2-0.1C4.8,7.3,5,7.1,5.1,7C5.3,6.7,5.4,6.5,5,6.4C4.9,6.3,4.9,6.3,4.8,6.2z"/>
		<path class="st0" d="M6.3,7.9c0.2-0.1,0.5-0.2,0.4,0.2c0,0.2,0.1,0.3,0.4,0.2c0.1-0.1,0.1-0.3,0.3-0.2c0.3-0.1,0.6,0,0.8-0.2
			c0.1-0.1,0.1-0.1,0.1-0.2c0-0.1-0.1-0.1-0.2-0.1C7.7,7.7,7.2,7.8,6.8,7.4C6.5,7.2,6.4,7.7,6.3,7.9z"/>
		<path class="st0" d="M3.6,10.6c-0.1,0-0.1-0.1-0.2-0.1C3.3,10.4,3,10.5,3,10.3c0-0.2,0.3-0.2,0.3-0.3C3,9.9,2.8,10.1,2.5,10.3
			c0.1,0.2-0.3,0.3-0.1,0.5c0.1,0.1,0.1,0.4,0.3,0.3C3,10.9,3.5,11.1,3.6,10.6z"/>
		<path class="st0" d="M12.4,3.6c0.1,0.1,0.2,0.1,0.3-0.1c0.1-0.2,0.2-0.1,0.3-0.1c0.4,0,0.6-0.2,0.4-0.6c-0.1,0-0.1-0.1-0.1-0.2
			c0,0,0,0,0-0.1c0,0,0,0,0,0c-0.3-0.1-0.5,0-0.6,0.4C12.7,3.1,12.5,3.3,12.4,3.6z"/>
		<path class="st0" d="M12.5,12.4c-0.3,0.1-0.5,0.2-0.7,0.4c-0.1,0.1-0.3,0.3-0.6,0.1c-0.3-0.2-0.5,0.1-0.8,0.1
			c0,0.1,0.2,0.1,0.3,0.2c0.6,0.2,1.1-0.1,1.6-0.4C12.4,12.7,12.5,12.6,12.5,12.4z"/>
		<path class="st0" d="M6.5,14.9c0.1-0.2,0.3-0.1,0.5-0.3c-0.2-0.3-0.6-0.4-0.8-0.8C6,13.6,5.9,14,5.8,14c0.3,0.2-0.1,0.6,0.1,0.8
			C6,14.9,6,15,6,15.1c0.1,0,0.2,0,0.2,0C6.3,15,6.3,14.9,6.5,14.9z"/>
		<path class="st0" d="M6.5,13.1C6.1,13,6,13,5.8,13.5c0.4-0.3,0.7-0.1,0.9,0.1C6.9,13.7,7,13.9,7.3,14c0.2,0.1,0.1,0.2,0,0.2
			c0.2,0,0.4,0.1,0.6,0.1c-0.3-0.5-0.9-0.7-1.2-1.1C6.6,13.2,6.6,13.2,6.5,13.1C6.6,13.1,6.6,13.1,6.5,13.1z"/>
		<path class="st0" d="M4.2,9.4c-0.2,0.4,0.1,0.7,0.2,1c0.1,0.3,0.2-0.1,0.4-0.1c0-0.3,0-0.5,0-0.8C4.7,9.3,4.4,9.4,4.2,9.4z"/>
		<path class="st0" d="M3,13.3c0-0.3,0-0.6,0.1-0.9c-0.2,0-0.5-0.2-0.5,0.1C2.6,12.8,2.6,13.2,3,13.3z"/>
		<path class="st0" d="M14.4,5.6c0.2,0,0.4-0.2,0.6-0.2C15,5.2,15.1,5,15,4.7C14.6,4.9,14.6,5.3,14.4,5.6z"/>
		<path class="st0" d="M8.3,14.7c0.1,0.1-0.1,0.4,0.2,0.4c0.2,0,0.4-0.2,0.4-0.4c0-0.2-0.2-0.3-0.3-0.3C8.2,14.4,8.3,14.6,8.3,14.7z
			"/>
		<path class="st0" d="M2.4,10.7c-0.2-0.2,0.2-0.3,0.1-0.5c-0.7,0-0.7,0-0.6,0.7C2.2,11,2.2,10.7,2.4,10.7z"/>
		<path class="st0" d="M13.4,2.4c0.1,0.3,0.4,0.6,0.4,0.9c0.4-0.3,0.1-0.6,0-0.9C13.8,2.3,13.6,2.2,13.4,2.4z"/>
		<path class="st0" d="M6.2,15.1C6.2,15,6.1,15,6,15.1c-0.2,0.2-0.4,0.3-0.6,0.6C5.9,15.6,6,15.3,6.2,15.1z"/>
		<path class="st0" d="M4.7,11.7c-0.1-0.4-0.5-0.1-0.7-0.2c-0.1,0.1-0.2,0.2,0,0.4C4.2,11.7,4.4,11.7,4.7,11.7
			C4.7,11.7,4.7,11.7,4.7,11.7z"/>
		<path class="st0" d="M5.7,0.8c0,0,0-0.1,0-0.1c-0.3,0-0.5-0.3-0.9-0.2c0,0.1,0.1,0.1,0.1,0.2C5.1,0.7,5.4,0.8,5.7,0.8z"/>
		<path class="st0" d="M12.7,5.6c0,0.4,0.1,0.6,0.4,0.5C13,5.9,12.9,5.8,12.7,5.6z"/>
		<path class="st0" d="M4.5,5.3C4.9,5.2,4.9,5,4.6,4.5C4.5,4.7,4.7,5,4.5,5.3z"/>
		<path class="st0" d="M4.1,11.1C3.9,11,4,10.6,3.6,10.6c0.2,0.2,0.1,0.4,0.1,0.6l0,0C3.8,11.2,3.9,11.1,4.1,11.1z"/>
		<path class="st0" d="M7.7,2.5c-0.1,0.1-0.3,0-0.3,0.2C7.4,2.9,7.5,3,7.7,3C7.7,2.8,7.7,2.7,7.7,2.5z"/>
		<path class="st0" d="M4.9,0.7c0-0.1-0.1-0.1-0.1-0.2c-0.1,0-0.3,0-0.3,0.1C4.6,0.8,4.7,0.7,4.9,0.7z"/>
		<path class="st0" d="M4.8,3c0,0.2,0,0.4,0.2,0.5C5,3.3,5.1,3.1,4.8,3z"/>
		<path class="st0" d="M7.8,3.3c0,0.2,0.1,0.1,0.2,0C7.9,3.3,7.9,3.3,7.8,3.3z"/>
		<path class="st0" d="M6.6,13.1C6.6,13.2,6.6,13.2,6.6,13.1C6.6,13.1,6.6,13.1,6.6,13.1z"/>
		<path class="st0" d="M3.7,11.3L3.7,11.3L3.7,11.3z"/>
		<path class="st0" d="M7.7,3.3C7.7,3.3,7.7,3.3,7.7,3.3C7.7,3.3,7.7,3.3,7.7,3.3C7.7,3.3,7.7,3.3,7.7,3.3z"/>
		<path class="st0" d="M3.3,7.7C3.4,7.7,3.5,7.7,3.3,7.7C3.4,7.7,3.4,7.7,3.3,7.7z"/>
		<path class="st0" d="M8.9,11c0,0.1,0,0.2,0,0.3c0,0.2,0.1,0.3,0.2,0.3c0.2,0,0.2-0.1,0.3-0.2c0.1-0.1,0.1-0.2,0.2-0.2
			C9.4,11.1,9.2,11,8.9,11z"/>
		<path class="st0" d="M6.6,4.7C6.9,4.7,7,4.9,7,5.1C7.1,5.1,7.1,5,7.2,4.9c0.4-0.4,0.4-0.4-0.1-0.6C7.1,4.5,6.9,4.5,6.8,4.5
			C6.7,4.5,6.6,4.5,6.6,4.7z"/>
		<path class="st0" d="M6.5,4.7c0,0,0,0.1-0.1,0.1c0,0,0,0,0.1,0C6.5,4.8,6.5,4.8,6.5,4.7C6.5,4.7,6.5,4.7,6.5,4.7z"/>
		<path class="st0" d="M7.1,1.7c0,0.1,0,0.1,0,0.2c0,0,0.1,0,0.1,0C7.2,1.8,7.1,1.8,7.1,1.7C7.1,1.7,7.1,1.7,7.1,1.7z"/>
		<path class="st0" d="M13.1,7.8c0.1,0,0.1,0,0.2-0.1c0,0,0-0.1,0-0.1C13.1,7.6,13.1,7.7,13.1,7.8L13.1,7.8z"/>
		<path class="st0" d="M2.5,5.8c0.1,0,0.2,0,0.2-0.1c0,0,0,0,0,0c0,0-0.1,0-0.1,0C2.5,5.7,2.5,5.7,2.5,5.8z"/>
		<path class="st0" d="M4.5,5.9C4.6,5.9,4.6,5.9,4.5,5.9c0.1-0.1,0-0.2,0-0.2C4.4,5.8,4.5,5.9,4.5,5.9L4.5,5.9z"/>
		<path class="st0" d="M4.5,5.9C4.6,5.9,4.6,5.9,4.5,5.9c0.1,0,0.1,0,0.2,0C4.6,5.9,4.6,5.7,4.5,5.9C4.5,5.9,4.5,5.9,4.5,5.9z"/>
		<path class="st0" d="M4.7,6c0,0,0-0.1,0-0.1c0,0,0,0,0,0C4.7,5.9,4.6,5.9,4.7,6C4.7,6,4.7,6,4.7,6z"/>
		<path class="st0" d="M2.6,5.7C2.6,5.7,2.6,5.7,2.6,5.7C2.6,5.7,2.6,5.7,2.6,5.7z"/>
		<path class="st0" d="M13.4,2.6c0,0.1,0,0.2,0.1,0.2C13.5,2.7,13.4,2.6,13.4,2.6z"/>
		<path class="st0" d="M4.4,8.7C4.4,8.6,4.4,8.6,4.4,8.7c-0.1,0-0.1,0-0.1,0.1C4.4,8.7,4.4,8.7,4.4,8.7C4.4,8.7,4.4,8.7,4.4,8.7z"/>
		<path class="st0" d="M4.6,11.7c0,0.1,0,0.1,0.1,0.1C4.8,11.8,4.8,11.7,4.6,11.7C4.7,11.7,4.7,11.7,4.6,11.7z"/>
		<path class="st0" d="M5.2,6C5.3,6,5.4,6.1,5.5,6C5.5,5.9,5.4,5.9,5.2,6C5.3,5.9,5.3,6,5.2,6z"/>
	</g>
</g>
</svg>
