<?xml version="1.0" encoding="UTF-8"?>
<!-- Copyright (C) 2020 Oleksandr Masniuk and contributors -->
<!-- SPDX-License-Identifier: MIT -->
<!DOCTYPE svg PUBLIC "-//W3C//DTD SVG 1.1//EN" "http://www.w3.org/Graphics/SVG/1.1/DTD/svg11.dtd">
<svg xmlns="http://www.w3.org/2000/svg"
    xmlns:xlink="http://www.w3.org/1999/xlink"
    version="1.1"
    viewBox="0 0 4.562458 8.7623987"
 
>
    <title>StarCraft2 Protoss Race</title>
    <path
        style="fill:#dec93e;"
        d="M 0.24808,8.360833 C -0.11524,7.62061 -0.07422,6.395215 0.33648,5.71987 L 0.50509,5.442619 0.65558,5.578809 C 1.01779,5.906607 1.52933,5.623139 1.52933,5.094615 1.52933,4.513154 1.08054,3.937 0.62761,3.937 H 0.4964 L 0.4994,1.9685 0.5024,0 0.65522,0.423333 C 0.88006,1.046199 1.06619,1.374785 1.41604,1.766516 1.58803,1.959099 1.78196,2.185737 1.84698,2.270157 L 1.9652,2.423648 1.73764,2.366538 C 1.60049,2.332118 1.46008,2.350938 1.38419,2.413918 1.19954,2.567167 1.22687,3.146518 1.43459,3.482654 1.85932,4.169891 2.51128,3.788976 2.24302,3.010322 l -0.11349,-0.329384 0.1782,0.09887 c 0.4432,0.245898 0.7137,0.627853 0.84951,1.199534 0.0487,0.204885 0.0395,0.233535 -0.0473,0.148167 -0.15256,-0.150063 -0.38458,-0.131105 -0.44897,0.03668 -0.0333,0.08669 0.01,0.207042 0.11004,0.30724 0.36832,0.368326 1.12074,-0.08666 1.24581,-0.75334 0.0611,-0.325866 0.0105,-0.99412 -0.0957,-1.262751 L 3.85422,2.286005 4.03578,2.44536 c 0.68956,0.605253 0.7035,2.007659 0.033,3.321915 C 3.75539,6.381573 3.21644,6.972522 2.57456,7.405656 1.91198,7.852762 1.73833,7.930521 1.95409,7.683505 2.34001,7.241679 2.30678,6.530897 1.89539,6.427643 1.37448,6.296903 0.60452,7.398032 0.55904,8.338779 0.54774,8.571435 0.51764,8.762063 0.49194,8.762398 0.46634,8.762742 0.35648,8.58203 0.24791,8.360838 Z M 0.58198,5.0811 C 0.44121,4.911484 0.54098,4.553787 0.7474,4.488286 1.12346,4.368928 1.43048,4.831716 1.1568,5.1054 1.01644,5.245757 0.70781,5.23271 0.58198,5.0811 Z"
    />
</svg>
