<?xml version="1.0" encoding="UTF-8"?>
<!-- Copyright (C) 2020 Oleksandr Masniuk and contributors -->
<!-- SPDX-License-Identifier: MIT -->
<!DOCTYPE svg PUBLIC "-//W3C//DTD SVG 1.1//EN" "http://www.w3.org/Graphics/SVG/1.1/DTD/svg11.dtd">
<svg xmlns="http://www.w3.org/2000/svg"
    xmlns:xlink="http://www.w3.org/1999/xlink"
    version="1.1"
    viewBox="0 0 6.362205 6.2324862"
 
>
    <title>StarCraft2 Terran Race</title>
    <path
     style="fill:#295a91;"
     d="M 1.904546,5.36845 C 2.397074,4.38293 2.473302,4.18146 2.247551,4.46185 2.153701,4.57842 2.102421,4.59543 2.071162,4.52035 1.996012,4.33988 1.857113,4.40397 1.916674,4.59165 1.961464,4.73277 1.941114,4.76265 1.816546,4.73866 1.700188,4.71626 1.660204,4.63306 1.660204,4.41338 c 0,-0.25086 0.03178,-0.29943 0.211666,-0.32351 0.237608,-0.0318 0.445963,-0.18334 0.252095,-0.18334 -0.07513,0 -0.04965,-0.0496 0.06773,-0.1318 0.103495,-0.0725 0.188172,-0.18679 0.188172,-0.254 0,-0.2172 -0.321803,-0.12969 -0.513605,0.13968 L 1.679793,3.92228 1.4707,3.71319 1.261608,3.50409 1.397701,3.29639 C 1.472551,3.18215 1.508261,3.06315 1.477051,3.03194 1.337549,2.89244 1.179678,3.00704 0.943039,3.4197 L 0.688121,3.8642 0.687327,3.15652 0.686533,2.44884 0.892076,2.50044 C 1.159987,2.56764 1.417766,2.33784 1.271756,2.16191 1.071976,1.92119 0.581449,2.09801 0.195315,2.54989 L 0.085097,2.67888 0.129417,2.50954 C 0.153787,2.41644 0.252545,2.08304 0.34887,1.76871 l 0.175136,-0.5715 1.241664,0.004 c 1.320553,-0.002 -0.08015,3.7e-4 1.2681,-0.003 -0.19542,0.11081 -0.264324,0.1444 -0.365532,0.21111 -0.21597,0.14235 -0.614633,0.35835 -0.614633,0.50046 0,0.0511 0.04176,0.0451 0.1016,-0.0148 0.05588,-0.0559 0.155844,-0.0991 0.222034,-0.1016 L 2.48527,1.78938 2.36907,1.93263 C 2.27901,2.04366 2.27795,2.0608 2.36437,2.00883 2.44274,1.96173 2.467894,1.98743 2.44904,2.09533 2.41681,2.27984 2.707482,2.36762 2.808645,2.20394 2.907805,2.04349 2.729525,2.01622 2.668668,2.04965 2.640938,2.06485 2.621528,2.10705 2.600178,2.14115 2.579088,2.17495 2.552248,2.06975 2.550508,2.03256 2.537128,1.92661 2.664462,1.72106 2.92863,1.62062 3.283225,1.48581 3.551684,1.57672 3.617931,1.85415 c 0.06737,0.28209 0.195641,0.45669 0.291843,0.39723 0.03926,-0.0243 0.04752,-0.10629 0.01835,-0.18229 -0.03955,-0.10306 -0.02247,-0.11976 0.0672,-0.0657 l 0.120222,0.0725 -0.1162,-0.14325 -0.1162,-0.14325 h 0.120433 c 0.06624,0 0.166154,0.0457 0.222034,0.1016 0.05984,0.0598 0.1016,0.0659 0.1016,0.0148 0,-0.1421 -0.386606,-0.37835 -0.614633,-0.50046 -0.420581,-0.22522 0.03522,0.0192 -0.383041,-0.20525 1.366553,-0.008 -0.125668,0.007 1.285609,-0.003 h 1.229261 l 0.175137,0.5715 C 6.115876,2.0829 6.218077,2.41628 6.246671,2.50941 6.286301,2.6385 6.230821,2.61257 6.013198,2.40032 5.584339,1.98204 5.089213,1.92079 5.089213,2.28603 c 0,0.19063 0.16494,0.27315 0.415167,0.20772 L 5.68188,2.44735 5.681086,3.15572 5.680292,3.8641 5.425374,3.4196 C 5.188736,3.00697 5.030864,2.89234 4.891362,3.03184 c -0.03121,0.0312 0.0045,0.15021 0.07935,0.26445 L 5.106805,3.50399 4.897713,3.71308 4.68862,3.92218 4.502151,3.6603 C 4.310346,3.39094 3.988543,3.30343 3.988543,3.52063 c 0,0.0672 0.08468,0.18151 0.188172,0.254 0.117388,0.0822 0.142867,0.1318 0.06773,0.1318 -0.193868,0 0.01449,0.15153 0.252095,0.18334 0.179883,0.0241 0.211666,0.0726 0.211666,0.32351 0,0.21968 -0.03998,0.30287 -0.156342,0.32528 C 4.427294,4.76256 4.406946,4.73256 4.451736,4.59155 4.511296,4.40389 4.372396,4.3398 4.297248,4.52025 4.265988,4.59535 4.214708,4.57825 4.120859,4.46175 3.895109,4.18136 3.971337,4.38285 4.463865,5.36835 4.829235,6.09942 5.05923,6.40208 4.739031,6.13884 4.418833,5.8756 3.881206,5.76485 3.366894,5.81877 3.316884,5.82377 3.306084,5.72537 3.250835,5.55743 l -0.08355,-0.254 -0.05912,0.26118 C 3.082365,5.67861 3.054575,5.83099 2.976013,5.82383 2.384561,5.77003 1.864862,5.92953 1.629386,6.13884 1.393909,6.34814 1.539186,6.09944 1.904553,5.36835 Z M 0.289982,5.40935 C 0.449472,5.11831 0.721461,4.59852 0.894403,4.25426 L 1.208842,3.62834 1.420423,3.83992 1.632004,4.0515 1.285325,4.74101 0.938647,5.43051 h 0.384119 0.384119 l -0.131348,0.254 -0.131349,0.254 H 0.722094 0 Z M 4.79287,5.68451 4.661522,5.43051 H 5.045641 5.42976 L 5.083082,4.74101 4.736404,4.0515 4.947984,3.83992 5.159565,3.62834 5.474004,4.25426 c 0.172942,0.34426 0.43897,0.88045 0.59822,1.17162 L 6.362205,5.95505 H 5.640111 L 4.924219,5.93855 Z M 2.83566,0.51393 C 2.992322,0.23127 3.149167,0 3.184204,0 3.219244,0 3.376085,0.23127 3.532747,0.51393 L 3.817588,1.02785 3.321643,1.02835 3.183953,0.80754 3.0487,1.02695 c -0.244473,0.002 -0.138016,9e-4 -0.49788,9e-4 z"/>
</svg>
