<?xml version="1.0" encoding="UTF-8"?>
<!-- Copyright (C) 2020 Oleksandr Masniuk and contributors -->
<!-- SPDX-License-Identifier: MIT -->
<!DOCTYPE svg PUBLIC "-//W3C//DTD SVG 1.1//EN" "http://www.w3.org/Graphics/SVG/1.1/DTD/svg11.dtd">
<svg xmlns="http://www.w3.org/2000/svg"
    xmlns:xlink="http://www.w3.org/1999/xlink"
    version="1.1"
  
    viewBox="0 0 6.5671782 7.2489309"
>
    <title>StarCraft2 Zerg Race</title>
    <path
        d="M 1.679933,7.22438 C 1.377862,7.16748 0.869148,6.79955 0.728081,6.53596 L 0.639051,6.36961 0.949733,6.58045 c 0.207868,0.14106 0.425851,0.2104 0.6587,0.20954 C 2.027262,6.78799 2.131044,6.73049 2.243149,6.43563 2.312659,6.25281 2.296559,6.16946 2.157629,5.99285 1.956265,5.73686 1.741111,5.71478 1.546235,5.93015 1.387208,6.10587 1.367165,6.28671 1.490125,6.43636 1.536335,6.49256 1.457305,6.43036 1.314514,6.29722 1.122745,6.11893 1.044084,5.95832 1.013554,5.68274 0.981374,5.39228 0.992634,5.34168 1.064404,5.4543 1.248865,5.74374 1.561774,5.3731 1.390832,5.06767 1.177525,4.68651 0.729644,5.07667 0.72748,5.64599 0.72598,6.05307 0.598135,5.91623 0.513827,5.41721 0.459507,5.09568 0.552667,4.28712 0.621337,4.48415 0.668217,4.61865 0.917773,4.62112 1.05051,4.48815 1.19558,4.34308 1.175999,4.0856 1.0152,4.0239 0.735933,3.91673 0.441633,4.1128 0.290783,4.50645 L 0.145316,4.88608 0.142616,4.54742 c -0.003,-0.37093 0.224698,-0.94925 0.445785,-1.1322 l 0.140418,-0.1162 v 0.1283 c 0,0.17151 0.246508,0.25805 0.391731,0.13752 C 1.275986,3.43584 1.268818,3.07271 1.10963,3.01163 0.91483,2.93693 0.599258,3.04323 0.320956,3.27739 0.182586,3.39382 0.045321,3.48908 0.015923,3.48908 c -0.08311,0 0.174112,-0.45842 0.423574,-0.75489 C 0.694034,2.43169 1.198507,2.12783 1.130661,2.31788 1.018064,2.63328 1.441419,2.86364 1.656777,2.60415 1.804664,2.42596 1.732637,2.19701 1.490069,2.07429 1.232774,1.94411 0.61531,1.93293 0.36342,2.05389 0.249502,2.10859 0.29041,2.04389 0.469958,1.88594 0.852346,1.54911 1.49059,1.33764 1.895545,1.41361 2.151246,1.46161 2.180017,1.48601 2.059841,1.5533 1.697423,1.75612 2.064741,2.24105 2.431901,2.04453 2.57936,1.96563 2.602424,1.89596 2.56252,1.65005 2.48597,1.17836 2.151409,0.88336 1.575486,0.77975 L 1.279153,0.72645 1.705194,0.63095 C 2.211815,0.51739 2.753969,0.61285 3.155007,0.88627 L 3.422196,1.06842 3.240424,1.15902 C 3.024077,1.26688 2.961122,1.502 3.102862,1.67279 3.367096,1.99117 3.793753,1.63019 3.793753,1.08825 3.793753,0.768 3.676255,0.49837 3.406406,0.19936 L 3.226486,0 3.551554,0.1347 C 3.994528,0.31826 4.36568,0.64269 4.64996,1.09484 4.780937,1.30316 4.845447,1.44724 4.793314,1.41503 4.634003,1.31653 4.299343,1.44723 4.241134,1.63065 4.120808,2.00976 4.630034,2.2006 4.91671,1.88382 5.110042,1.67019 5.183117,1.03601 5.044942,0.77095 L 4.939171,0.56805 5.160198,0.77131 C 5.492063,1.07649 5.691177,1.69408 5.652654,2.29874 L 5.639484,2.50542 5.531417,2.35763 C 5.320025,2.06853 4.960988,2.40843 5.134767,2.73319 5.356917,3.14828 5.96846,2.61347 5.984102,1.99042 l 0.0059,-0.23703 0.07277,0.16933 c 0.105535,0.24559 0.09969,0.86155 -0.0117,1.23335 L 5.954702,3.47774 5.829581,3.35261 C 5.684982,3.20802 5.560411,3.23061 5.43874,3.42351 5.34105,3.57837 5.49655,3.82773 5.690813,3.82773 c 0.203398,0 0.629316,-0.45508 0.752798,-0.80433 l 0.119738,-0.33867 0.0037,0.23495 C 6.577549,3.58301 5.944603,4.72856 5.121222,5.53644 L 4.630951,6.01749 4.309694,5.93039 C 3.361649,5.67335 2.48497,4.95841 2.383844,4.35985 2.233123,3.46774 3.088608,2.72937 3.699657,3.22416 c 0.266255,0.2156 0.268305,0.70515 0.004,0.96529 L 3.512054,4.37807 3.565844,4.15741 C 3.628194,3.90165 3.422685,3.63713 3.221588,3.7143 2.8533,3.85562 2.888708,4.43556 3.277918,4.63683 3.592624,4.79957 3.89104,4.72193 4.154609,4.40867 4.92317,3.49529 3.971748,2.14168 2.881404,2.59726 1.916086,3.00059 1.554095,4.0887 2.052498,5.08887 2.304101,5.59377 2.713502,5.93395 3.467423,6.26457 L 3.962451,6.48165 3.763756,6.634 C 3.504156,6.83305 2.629252,7.18051 2.252728,7.23409 2.089745,7.25729 1.83196,7.25279 1.679874,7.22409 Z"
        style="fill:#882991;" />
</svg>
