<?xml version="1.0" encoding="UTF-8"?>
<!-- Copyright (C) 2020 Blizzard Entertainment, Inc  -->
<!-- SPDX-License-Identifier: UNLICENSED -->
<!-- https://www.blizzard.com/en-us/legal/8bcb0794-6641-4ce3-a573-8eb243bab342/blizzard-entertainment-logo-and-trademark-guidelines -->
<!DOCTYPE svg PUBLIC "-//W3C//DTD SVG 1.1//EN" "http://www.w3.org/Graphics/SVG/1.1/DTD/svg11.dtd">
<svg version="1.1" id="Layer_1" xmlns="http://www.w3.org/2000/svg" xmlns:xlink="http://www.w3.org/1999/xlink" x="0px" y="0px"
    viewBox="0 0 467.1333 426.5083"
    width="467.1333"
    height="426.5083"
>
<title>StarCraft2 logo</title>
<style type="text/css">
	.st0{fill:#3390FF;}
	.st1{fill:#CCE1FF;}
</style>
<g>
	<path
        class="st0"
        d="m 215.125,30.8 -78,-30.8 h -1.4 l -80.8,15 c -1.4,0 -2.1,1.4 -2.1,2.9 0,0.7 0.7,2.1 1.4,2.1 9.3,4.3 18.6,8.6 27.9,13.6 15,7.9 42.2,25 47.9,35.1 v 0 c 2.1,3.6 2.9,7.9 2.9,12.2 l 0.7,259 c 0,0 0.7,32.9 77.3,85.1 1.4,0.7 5.7,1.4 6.4,0 0,0 0,0 0,-0.7 V 33 c -0.8,-0.7 -0.8,-2.2 -2.2,-2.2 z" />
    <path
        class="st0"
        d="m 250.925,30.8 78,-30.8 h 1.4 l 80.8,15 c 1.4,0 2.1,1.4 2.1,2.9 0,0.7 -0.7,2.1 -1.4,2.1 -9.3,4.3 -18.6,8.6 -27.9,13.6 -15,7.9 -42.2,25 -47.9,35.1 v 0 c -2.1,4.3 -2.9,8.6 -2.9,12.9 l -0.7,259 c 0,0 -0.7,32.9 -77.3,85.1 -1.4,0.7 -5.7,1.4 -6.4,0 0,0 0,0 0,-0.7 V 33 c 0.8,-0.7 0.8,-2.2 2.2,-2.2 z"/>
    <path
        class="st1"
        d="m 34.825,138.3 h 129.5 l 17.2,15.7 c 0.7,0.7 0.7,0.7 1.4,0.7 v 0 c 0.7,0 1.4,0 1.4,-0.7 l 45.8,-50.1 c 0.7,-0.7 0.7,-1.4 0.7,-2.9 -0.7,-0.7 -1.4,-1.4 -2.1,-1.4 h -168.1 c -7.2,-0.7 -13.6,1.4 -19.3,5 -5,4.3 -9.3,11.4 -9.3,24.3 v 6.4 c 0,0.8 1.4,2.2 2.8,3 0,-0.8 0,-0.8 0,0 z m 430,-36.5 h -184.6 l -1.4,0.7 -33.6,31.5 c -0.7,0.7 -0.7,2.9 0,3.6 0.7,0.7 1.4,0.7 1.4,0.7 h 148.1 l 7.9,10.7 c 0.7,0.7 2.1,1.4 3.6,0.7 l 60.1,-42.9 c 0.7,-0.7 1.4,-2.1 0,-3.6 -0.1,-1.4 -0.8,-1.4 -1.5,-1.4 z m -61.6,196.7 c -5,0.7 -10,1.4 -15,1.4 -43.6,-1.4 -79.4,-35.1 -83,-78.7 -0.7,-5.7 -0.7,-11.4 -0.7,-17.2 0,-14.3 0.7,-29.3 3.6,-43.6 0,-0.7 0,-1.4 -0.7,-2.1 -0.7,-0.7 -1.4,-0.7 -2.1,-0.7 h -65.8 c -0.7,0 -2.1,0.7 -2.1,1.4 -5.7,16.5 -8.6,34.3 -8.6,52.2 0,14.3 2.1,21.5 7.2,38.6 12.9,39.3 60.1,77.3 98,77.3 57.2,0 71.5,-20 72.2,-26.5 -0.1,-1.4 -0.8,-2.1 -3,-2.1 z m -277.5,-138.8 -2.1,-0.7 h -74.4 c -1.4,0 -2.1,1.4 -2.1,2.1 0,0.7 0,1.4 0.7,1.4 0,0 100.9,116.6 103,119.5 0,0 0,0.7 0.7,0.7 l -0.7,0.7 h -59.4 c -8.6,0 -17.2,-2.9 -24.3,-7.9 -2.9,-2.1 -5,-5 -7.2,-7.9 -0.7,-0.7 -0.7,-0.7 -1.4,-0.7 -0.7,0 -1.4,0 -2.1,0.7 l -55.9,51.6 c -0.7,0.7 -0.7,2.9 0,3.6 0.7,0.7 0.7,0.7 1.4,0.7 h 208.2 c 12.2,0 20,-12.9 20.7,-25 0,-5 -1.4,-10 -4.3,-13.6 -9.2,-9.3 -100.8,-125.2 -100.8,-125.2 z"/>
</g>
</svg>
