<?xml version="1.0" encoding="utf-8"?><svg version="1.1" id="Layer_1" xmlns="http://www.w3.org/2000/svg" xmlns:xlink="http://www.w3.org/1999/xlink" x="0px" y="0px" viewBox="0 0 102.5 122.88" style="enable-background:new 0 0 102.5 122.88" xml:space="preserve"><g><path d="M69.78,0.72C69.3,0.29,68.62,0,67.95,0c-0.14,0-0.29,0-0.43,0.05l-61.42,0c-1.64,0-3.19,0.68-4.3,1.79 C0.68,2.95,0,4.45,0,6.14v110.65c0,1.69,0.68,3.19,1.79,4.3c1.11,1.11,2.61,1.79,4.3,1.79c31.03,0,59.35,0,90.22,0 c1.69,0,3.19-0.68,4.3-1.79c1.11-1.11,1.79-2.61,1.79-4.3V35.52c0.05-0.24,0.1-0.43,0.1-0.68c0-0.82-0.39-1.55-0.92-2.08 L70.12,0.92c-0.1-0.1-0.15-0.14-0.24-0.19H69.78L69.78,0.72z M48.51,83.75V48.86c0-1.49,1.2-2.69,2.73-2.69 c1.49,0,2.73,1.2,2.73,2.69v34.86l12.52-10.93c1.11-0.98,2.82-0.89,3.8,0.22c0.98,1.11,0.89,2.79-0.22,3.77L53.05,91.64 c-1.05,0.92-2.6,0.89-3.61-0.03L32.45,76.77c-1.11-0.98-1.24-2.66-0.22-3.77c0.98-1.11,2.69-1.2,3.8-0.22l12.52,10.93L48.51,83.75 L48.51,83.75z M65.19,5.51v23.83c0,2.27,0.92,4.35,2.42,5.85c1.5,1.5,3.58,2.42,5.85,2.42h23.39v79.19c0,0.15-0.05,0.34-0.19,0.43 c-0.1,0.1-0.24,0.19-0.43,0.19c-24.57,0-66.28,0-90.18,0c-0.15,0-0.34-0.05-0.43-0.19c-0.1-0.1-0.19-0.29-0.19-0.43V6.14 c0-0.19,0.05-0.34,0.19-0.43c0.1-0.1,0.24-0.19,0.43-0.19h59.1H65.19L65.19,5.51z M70.65,29.34V9.38l22.47,22.76H73.45 c-0.77,0-1.45-0.34-1.98-0.82C70.99,30.83,70.65,30.11,70.65,29.34L70.65,29.34z"/></g></svg>