<?xml version="1.0" encoding="utf-8"?>
<!-- Generator: Adobe Illustrator 22.0.1, SVG Export Plug-In . SVG Version: 6.00 Build 0)  -->
<svg version="1.1" id="圖層_1" xmlns="http://www.w3.org/2000/svg" xmlns:xlink="http://www.w3.org/1999/xlink" x="0px" y="0px"
	 viewBox="0 0 16 16" style="enable-background:new 0 0 16 16;" xml:space="preserve">
<style type="text/css">
	.st0{fill:#5E5A5A;}
	.st1{fill:#868182;}
</style>
<g>
	<path class="st0" d="M8,0.4L1.4,4.2v7.6L8,15.6l6.6-3.8V4.2L8,0.4z M13.8,11.4L8,14.7l-5.8-3.4V4.6L8,1.3l5.8,3.4V11.4z"/>
</g>
<g>
	<path class="st0" d="M9.5,3.3H6.7L5.9,4c0,0-2.3-0.3-2.1,2.3c0,0,0.5-0.6,1-0.6c0.6,0,1,0.2,1,1S4.4,9,4.4,9l3.7,3.7
		c0-0.2,4.1-4.1,4.1-4.1L9.5,3.3z M7.1,4.9L6.4,4.1h1.5L7.1,4.9z"/>
</g>
<path class="st1" d="M273.3,97.8h43l17.5,14c0,0-37.5,35.3-37.5,34.3"/>
</svg>
