<?xml version="1.0" encoding="utf-8"?>
<!-- Generator: Adobe Illustrator 22.0.1, SVG Export Plug-In . SVG Version: 6.00 Build 0)  -->
<svg version="1.1" id="圖層_1" xmlns="http://www.w3.org/2000/svg" xmlns:xlink="http://www.w3.org/1999/xlink" x="0px" y="0px"
	 viewBox="0 0 16 16" style="enable-background:new 0 0 16 16;" xml:space="preserve">
<style type="text/css">
	.st0{fill:#5E5A5A;}
</style>
<g>
	<path class="st0" d="M8,0.4L1.4,4.2v7.6L8,15.6l6.6-3.8V4.2L8,0.4z M13.8,11.4L8,14.7l-5.8-3.4V4.6L8,1.3l5.8,3.4V11.4z"/>
</g>
<g>
	<polygon class="st0" points="13,6.5 11.9,7.1 13.9,7.1 15.5,5.9 9,5.9 9.2,6.5 	"/>
	<polygon class="st0" points="6.8,6.5 7,5.9 0.4,5.9 1.8,7.1 4.1,7.1 3,6.5 	"/>
	<polygon class="st0" points="4.7,7.6 1.9,7.6 3,8.8 6,8.8 6.1,8.5 	"/>
	<polygon class="st0" points="10,8.8 12.4,8.8 13.7,7.6 11.3,7.6 9.9,8.5 	"/>
	<polygon class="st0" points="3.2,9.2 4,10.5 5.4,10.5 5.8,9.2 	"/>
	<polygon class="st0" points="11.3,10.5 12.3,9.2 10.2,9.2 10.6,10.5 	"/>
	<polygon class="st0" points="11.1,11.7 10.6,10.5 9.2,10.5 	"/>
	<polygon class="st0" points="10.9,7.1 10.3,7.6 11.3,7.6 11.9,7.1 	"/>
	<polygon class="st0" points="7.7,9.2 8.3,9.2 8,9 	"/>
	<polygon class="st0" points="4.9,11.7 6.8,10.5 5.4,10.5 	"/>
	<polygon class="st0" points="8,4.5 8.5,5.9 9,5.9 8,3.3 7,5.9 7.5,5.9 	"/>
	<polygon class="st0" points="9.7,9.2 10.2,9.2 10,8.8 9.6,8.8 	"/>
	<polygon class="st0" points="5.1,7.1 4.1,7.1 4.7,7.6 5.7,7.6 	"/>
	<polygon class="st0" points="6.4,8.8 6,8.8 5.8,9.2 6.3,9.2 	"/>
	<polygon class="st0" points="4.5,6.8 7.2,6.8 7.5,5.9 7,5.9 6.8,6.5 3,6.5 4.1,7.1 5.1,7.1 	"/>
	<polygon class="st0" points="8.8,6.8 11.5,6.8 10.9,7.1 11.9,7.1 13,6.5 9.2,6.5 9,5.9 8.5,5.9 	"/>
	<polygon class="st0" points="6.7,8.2 5.7,7.6 4.7,7.6 6.1,8.5 6,8.8 6.4,8.8 	"/>
	<polygon class="st0" points="9.3,8.2 9.6,8.8 10,8.8 9.9,8.5 11.3,7.6 10.3,7.6 	"/>
	<polygon class="st0" points="10.1,10.4 8.3,9.2 7.7,9.2 5.9,10.4 6.3,9.2 5.8,9.2 5.4,10.5 6.8,10.5 8,9.7 9.2,10.5 10.6,10.5 
		10.2,9.2 9.7,9.2 	"/>
</g>
</svg>
