<?xml version="1.0" standalone="no"?>
<!DOCTYPE svg PUBLIC "-//W3C//DTD SVG 20010904//EN"
 "http://www.w3.org/TR/2001/REC-SVG-20010904/DTD/svg10.dtd">
<svg version="1.0" xmlns="http://www.w3.org/2000/svg"
 width="379.000000pt" height="326.000000pt" viewBox="0 0 379.000000 326.000000"
 preserveAspectRatio="xMidYMid meet">

<g transform="translate(0.000000,326.000000) scale(0.100000,-0.100000)"
fill="#000000" stroke="none">
<path d="M1993 3250 c-281 -3 -513 -7 -516 -10 -2 -3 12 -32 31 -64 l35 -59
621 7 621 8 428 -741 428 -741 -238 -402 -238 -402 -71 0 c-131 -2 -234 -79
-270 -203 -38 -132 22 -259 156 -329 48 -25 172 -25 220 0 95 49 154 128 165
221 10 79 -11 143 -76 236 -9 12 37 97 244 447 l256 432 -466 805 -465 805
-177 -2 c-97 -1 -406 -5 -688 -8z m1184 -2558 c126 -89 45 -290 -108 -269
-142 19 -175 215 -47 281 43 22 116 16 155 -12z"/>
<path d="M575 2872 c-68 -24 -112 -56 -146 -110 -63 -99 -61 -213 6 -312 l34
-50 -234 -395 -233 -395 465 -805 465 -805 556 5 c307 3 653 8 770 11 l212 6
-32 60 -33 61 -700 -7 -700 -7 -428 740 -428 741 215 362 214 362 79 1 c117 2
194 47 248 147 25 45 29 64 30 128 0 65 -4 82 -31 130 -37 66 -96 114 -166
135 -66 19 -101 19 -163 -3z m172 -140 c126 -89 45 -290 -108 -269 -142 19
-175 215 -47 281 43 22 116 16 155 -12z"/>

</g>
</svg>
